<?xml version="1.0" encoding="iso-8859-1"?>
<!-- Generator: Adobe Illustrator 19.0.0, SVG Export Plug-In . SVG Version: 6.00 Build 0)  -->
<svg version="1.1" id="Capa_1" xmlns="http://www.w3.org/2000/svg" xmlns:xlink="http://www.w3.org/1999/xlink" x="0px" y="0px"
	 viewBox="0 0 512 512" style="enable-background:new 0 0 512 512;" xml:space="preserve">
<path style="fill:#C49374;" d="M392,309H120c-24.813,0-45-20.187-45-45v-49c0-52.383,42.617-95,95-95h172c52.383,0,95,42.617,95,95
	v49C437,288.813,416.813,309,392,309z"/>
<path style="fill:#AB7C67;" d="M342,120h-86v189h136c24.813,0,45-20.187,45-45v-49C437,162.617,394.383,120,342,120z"/>
<path style="fill:#C49374;" d="M256,150c-41.355,0-75-33.645-75-75s33.645-75,75-75s75,33.645,75,75S297.355,150,256,150z"/>
<path style="fill:#FF623A;" d="M206,512c-24.813,0-45-20.187-45-45V340h90v127C251,491.813,230.813,512,206,512z"/>
<path style="fill:#FF4C36;" d="M306,512c-24.813,0-45-20.187-45-45V340h90v127C351,491.813,330.813,512,306,512z"/>
<path style="fill:#AB7C67;" d="M256,0v150c41.355,0,75-33.645,75-75S297.355,0,256,0z"/>
<path style="fill:#746ED0;" d="M256,390c-36.06,0-69.962-14.043-95.459-39.541C135.043,324.962,121,291.06,121,255
	s14.043-69.962,39.541-95.459C186.038,134.043,219.94,120,256,120s69.962,14.043,95.459,39.541C376.957,185.038,391,218.94,391,255
	s-14.043,69.962-39.541,95.459l0,0l0,0C325.962,375.957,292.06,390,256,390z"/>
<path style="fill:#415BE8;" d="M391,255.001c0.001-36.059-14.042-69.961-39.54-95.459L160.541,350.46
	c25.498,25.498,59.4,39.541,95.459,39.54c36.059,0.001,69.961-14.042,95.459-39.54S391.001,291.06,391,255.001z"/>
<path style="fill:#00E6B9;" d="M191.182,361.92c-12.566,0-23.012-3.832-30.641-11.461c-14.004-14.004-15.215-37.503-3.411-66.17
	c10.085-24.493,28.875-51.218,52.908-75.251s50.758-42.823,75.251-52.908c28.668-11.803,52.168-10.591,66.17,3.411
	c14.004,14.004,15.215,37.503,3.411,66.17c-10.085,24.493-28.875,51.218-52.908,75.251s-50.758,42.823-75.251,52.908
	C213.662,359.243,201.681,361.92,191.182,361.92z M320.911,178.062c-16.893,0-51.549,14.078-89.66,52.189
	c-48.039,48.04-57.896,90.595-49.497,98.995c1.736,1.735,4.935,2.692,9.335,2.692c16.893,0.002,51.549-14.078,89.66-52.189
	c48.039-48.04,57.896-90.595,49.497-98.995C328.51,179.019,325.312,178.062,320.911,178.062z"/>
<path style="fill:#00CCCB;" d="M354.87,225.711c11.804-28.667,10.593-52.166-3.411-66.17l-21.213,21.213
	c8.399,8.401-1.459,50.955-49.497,98.995c-38.111,38.111-72.768,52.191-89.66,52.19c-4.4,0-7.598-0.957-9.335-2.692l-21.213,21.213
	c7.629,7.629,18.074,11.461,30.64,11.461c10.499,0,22.481-2.677,35.529-8.05c24.493-10.085,51.218-28.875,75.251-52.908
	C325.995,276.928,344.785,250.204,354.87,225.711z"/>
<g>
</g>
<g>
</g>
<g>
</g>
<g>
</g>
<g>
</g>
<g>
</g>
<g>
</g>
<g>
</g>
<g>
</g>
<g>
</g>
<g>
</g>
<g>
</g>
<g>
</g>
<g>
</g>
<g>
</g>
</svg>
