<?xml version="1.0" encoding="iso-8859-1"?>
<!-- Generator: Adobe Illustrator 19.0.0, SVG Export Plug-In . SVG Version: 6.00 Build 0)  -->
<svg version="1.1" id="Capa_1" xmlns="http://www.w3.org/2000/svg" xmlns:xlink="http://www.w3.org/1999/xlink" x="0px" y="0px"
	 viewBox="0 0 512 512" style="enable-background:new 0 0 512 512;" xml:space="preserve">
<path style="fill:#93635B;" d="M497,512H15v-30c13.785,0,25-11.215,25-25V216c0-57.696,22.468-111.938,63.265-152.735
	S198.304,0,256,0s111.938,22.468,152.735,63.265S472,158.304,472,216v241c0,13.785,11.215,25,25,25V512z"/>
<path style="fill:#7F554E;" d="M497,482c-13.785,0-25-11.215-25-25V216c0-57.696-22.468-111.938-63.265-152.735S313.696,0,256,0v512
	h241V482z"/>
<path style="fill:#FFC36E;" d="M344,512H168V386h176V512z"/>
<rect x="256" y="386" style="fill:#EFAA56;" width="88" height="126"/>
<path style="fill:#FFD9A5;" d="M256,431c-96.495,0-175-78.505-175-175S159.505,81,256,81s175,78.505,175,175S352.495,431,256,431z"
	/>
<path style="fill:#FFC36E;" d="M256,81v350c96.495,0,175-78.505,175-175S352.495,81,256,81z"/>
<path style="fill:#C49374;" d="M55,231H40v-15c0-57.696,22.468-111.938,63.265-152.735S198.304,0,256,0h15v15
	c0,57.696-22.468,111.938-63.265,152.735S112.696,231,55,231z"/>
<path style="fill:#AB7C67;" d="M472,231h-15c-57.696,0-111.938-22.468-152.735-63.265S241,72.696,241,15V0h15
	c57.696,0,111.938,22.468,152.735,63.265S472,158.304,472,216V231z"/>
<path style="fill:#93635B;" d="M196,238.657c-15.339,0-29.761-5.974-40.606-16.82l21.213-21.213
	c10.693,10.693,28.094,10.693,38.787,0l21.213,21.213C225.761,232.684,211.339,238.657,196,238.657z"/>
<path style="fill:#7F554E;" d="M316,238.657c-15.339,0-29.761-5.974-40.606-16.82l21.213-21.213
	c10.693,10.693,28.094,10.693,38.787,0l21.213,21.213C345.761,232.684,331.339,238.657,316,238.657z"/>
<path style="fill:#FF3C22;" d="M412,396H102V266h310V396z"/>
<rect x="257" y="266" style="fill:#CE2200;" width="155" height="130"/>
<g>
	<polygon style="fill:#FFB74F;" points="271.143,295.645 257,309.787 242.857,295.645 221.645,316.857 235.787,331 221.645,345.143 
		242.857,366.355 257,352.213 271.143,366.355 292.355,345.143 278.213,331 292.355,316.857 	"/>
	<polygon style="fill:#FFB74F;" points="194.143,295.645 180,309.787 165.857,295.645 144.645,316.857 158.787,331 144.645,345.143 
		165.857,366.355 180,352.213 194.143,366.355 215.355,345.143 201.213,331 215.355,316.857 	"/>
</g>
<g>
	<polygon style="fill:#FF9800;" points="369.355,316.857 348.143,295.645 334,309.787 319.857,295.645 298.645,316.857 312.787,331 
		298.645,345.143 319.857,366.355 334,352.213 348.143,366.355 369.355,345.143 355.213,331 	"/>
	<polygon style="fill:#FF9800;" points="292.355,316.857 271.143,295.645 257,309.787 257,352.213 271.143,366.355 292.355,345.143 
		278.213,331 	"/>
</g>
<g>
</g>
<g>
</g>
<g>
</g>
<g>
</g>
<g>
</g>
<g>
</g>
<g>
</g>
<g>
</g>
<g>
</g>
<g>
</g>
<g>
</g>
<g>
</g>
<g>
</g>
<g>
</g>
<g>
</g>
</svg>
