<?xml version="1.0" encoding="iso-8859-1"?>
<!-- Generator: Adobe Illustrator 19.0.0, SVG Export Plug-In . SVG Version: 6.00 Build 0)  -->
<svg version="1.1" id="Capa_1" xmlns="http://www.w3.org/2000/svg" xmlns:xlink="http://www.w3.org/1999/xlink" x="0px" y="0px"
	 viewBox="0 0 512 512" style="enable-background:new 0 0 512 512;" xml:space="preserve">
<path style="fill:#93635B;" d="M391,190.197H121v-140h270V190.197z"/>
<rect x="256" y="50.2" style="fill:#7F554E;" width="135" height="140"/>
<path style="fill:#FFF65C;" d="M290,462.197H0v-342h290V462.197z"/>
<rect x="145" y="120.2" style="fill:#FFDF34;" width="145" height="342"/>
<rect x="145" y="348.2" style="fill:#FF9A00;" width="62" height="30"/>
<path style="fill:#FF623A;" d="M472,80.197H40c-22.056,0-40-17.944-40-40s17.944-40,40-40h432c22.056,0,40,17.944,40,40
	S494.056,80.197,472,80.197z"/>
<path style="fill:#FF4C36;" d="M472,0.197H256v80h216c22.056,0,40-17.944,40-40S494.056,0.197,472,0.197z"/>
<rect x="425" y="0.197" style="fill:#CE2200;" width="30" height="224"/>
<path style="fill:#FF9B41;" d="M493.613,363.197H386.387l14.839-92h77.549L493.613,363.197z"/>
<path style="fill:#FFDF34;" d="M440,299.197c-24.813,0-45-20.187-45-45s20.187-45,45-45s45,20.187,45,45
	S464.813,299.197,440,299.197z"/>
<g>
	<path style="fill:#FFB74F;" d="M208.961,227.235c-17.084-17.085-39.8-26.494-63.961-26.494s-46.877,9.409-63.961,26.494
		l-21.214-21.213c22.751-22.751,53-35.281,85.175-35.281s62.424,12.53,85.175,35.281L208.961,227.235z"/>
	<rect x="83" y="248.2" style="fill:#FFB74F;" width="124" height="30"/>
	<rect x="83" y="298.2" style="fill:#FFB74F;" width="124" height="30"/>
</g>
<g>
	<rect x="145" y="248.2" style="fill:#FF9A00;" width="62" height="30"/>
	<rect x="145" y="298.2" style="fill:#FF9A00;" width="62" height="30"/>
	<path style="fill:#FF9A00;" d="M145,170.741v30c24.162,0,46.877,9.409,63.961,26.494l21.214-21.213
		C207.424,183.271,177.175,170.741,145,170.741z"/>
</g>
<polygon style="fill:#FF4C36;" points="131.063,511.803 95,475.741 58.938,511.803 37.725,490.59 95,433.315 152.275,490.59 "/>
<path style="fill:#93635B;" d="M95,462.197c-31.43,0-57-25.57-57-57s25.57-57,57-57s57,25.57,57,57S126.43,462.197,95,462.197z"/>
<g>
</g>
<g>
</g>
<g>
</g>
<g>
</g>
<g>
</g>
<g>
</g>
<g>
</g>
<g>
</g>
<g>
</g>
<g>
</g>
<g>
</g>
<g>
</g>
<g>
</g>
<g>
</g>
<g>
</g>
</svg>
