<?xml version="1.0" encoding="iso-8859-1"?>
<!-- Generator: Adobe Illustrator 19.0.0, SVG Export Plug-In . SVG Version: 6.00 Build 0)  -->
<svg version="1.1" id="Capa_1" xmlns="http://www.w3.org/2000/svg" xmlns:xlink="http://www.w3.org/1999/xlink" x="0px" y="0px"
	 viewBox="0 0 511.999 511.999" style="enable-background:new 0 0 511.999 511.999;" xml:space="preserve">
<path style="fill:#FF3C22;" d="M256,496.046L45.637,284.247c-60.85-61.266-60.85-160.954,0-222.221
	c29.51-29.711,68.753-46.073,110.5-46.073c36.911,0,71.863,12.79,99.862,36.289c28-23.5,62.952-36.289,99.862-36.289
	c41.747,0,80.989,16.362,110.501,46.074l0,0c60.85,61.266,60.85,160.954,0,222.221L256,496.046z"/>
<path style="fill:#CE2200;" d="M466.362,62.027c-29.51-29.711-68.753-46.073-110.501-46.073c-36.911,0-71.863,12.79-99.862,36.289
	v443.803l210.362-211.799C527.211,222.981,527.211,123.294,466.362,62.027z"/>
<path style="fill:#FFB74F;" d="M256,352.818c-66.141,0-119.952-53.81-119.952-119.952S189.858,112.914,256,112.914
	s119.952,53.81,119.952,119.952S322.141,352.818,256,352.818z"/>
<g>
	<path style="fill:#FF9800;" d="M256,112.914v239.903c66.141,0,119.952-53.81,119.952-119.952S322.141,112.914,256,112.914z"/>
	<polygon style="fill:#FF9800;" points="311.977,217.872 270.993,217.872 270.993,175.889 241.006,175.889 241.006,217.872 
		200.022,217.872 200.022,247.86 241.006,247.86 241.006,287.844 270.993,287.844 270.993,247.86 311.977,247.86 	"/>
</g>
<polygon style="fill:#FF623A;" points="270.993,217.872 270.993,175.889 256,175.889 256,287.844 270.993,287.844 270.993,247.86 
	311.977,247.86 311.977,217.872 "/>
<g>
</g>
<g>
</g>
<g>
</g>
<g>
</g>
<g>
</g>
<g>
</g>
<g>
</g>
<g>
</g>
<g>
</g>
<g>
</g>
<g>
</g>
<g>
</g>
<g>
</g>
<g>
</g>
<g>
</g>
</svg>
