<?xml version="1.0" encoding="iso-8859-1"?>
<!-- Generator: Adobe Illustrator 19.0.0, SVG Export Plug-In . SVG Version: 6.00 Build 0)  -->
<svg version="1.1" id="Capa_1" xmlns="http://www.w3.org/2000/svg" xmlns:xlink="http://www.w3.org/1999/xlink" x="0px" y="0px"
	 viewBox="0 0 512 512" style="enable-background:new 0 0 512 512;" xml:space="preserve">
<path style="fill:#FFD9A5;" d="M512,512H0V0h512V512z"/>
<rect x="256" style="fill:#FFC36E;" width="256" height="512"/>
<path style="fill:#FF623A;" d="M393,512H119V379c0-41.355,33.645-75,75-75h124c41.355,0,75,33.645,75,75V512z"/>
<path style="fill:#FF9B41;" d="M256,334c-49.626,0-90-40.374-90-90s40.374-90,90-90s90,40.374,90,90S305.626,334,256,334z"/>
<path style="fill:#FF4C36;" d="M393,379c0-41.355-33.645-75-75-75h-62v208h137V379z"/>
<path style="fill:#FF8A2D;" d="M256,154v180c49.626,0,90-40.374,90-90S305.626,154,256,154z"/>
<g>
	<rect x="241" style="fill:#93635B;" width="30" height="512"/>
	<rect x="119" style="fill:#93635B;" width="30" height="512"/>
</g>
<g>
	<rect x="363" style="fill:#7F554E;" width="30" height="512"/>
	<rect x="256" style="fill:#7F554E;" width="15" height="512"/>
</g>
<path style="fill:#93635B;" d="M512,512H0V0h512V512z M30,482h452V30H30V482z"/>
<polygon style="fill:#7F554E;" points="256,0 256,30 482,30 482,482 256,482 256,512 512,512 512,0 "/>
<g>
</g>
<g>
</g>
<g>
</g>
<g>
</g>
<g>
</g>
<g>
</g>
<g>
</g>
<g>
</g>
<g>
</g>
<g>
</g>
<g>
</g>
<g>
</g>
<g>
</g>
<g>
</g>
<g>
</g>
</svg>
