<?xml version="1.0" encoding="iso-8859-1"?>
<!-- Generator: Adobe Illustrator 19.0.0, SVG Export Plug-In . SVG Version: 6.00 Build 0)  -->
<svg version="1.1" id="Capa_1" xmlns="http://www.w3.org/2000/svg" xmlns:xlink="http://www.w3.org/1999/xlink" x="0px" y="0px"
	 viewBox="0 0 512 512" style="enable-background:new 0 0 512 512;" xml:space="preserve">
<path style="fill:#00E6B9;" d="M181,351v116c0,24.813,20.187,45,45,45c11.517,0,22.032-4.354,30-11.495
	c7.968,7.141,18.483,11.495,30,11.495c24.813,0,45-20.187,45-45V351H181z"/>
<path style="fill:#00CCCB;" d="M256,351v149.505c7.968,7.141,18.483,11.495,30,11.495c24.813,0,45-20.187,45-45V351H256z"/>
<path style="fill:#746ED0;" d="M65,512c-24.813,0-45-20.187-45-45V351h90v116C110,491.813,89.813,512,65,512z"/>
<path style="fill:#415BE8;" d="M125,512c-24.813,0-45-20.187-45-45V351h90v116C170,491.813,149.813,512,125,512z"/>
<path style="fill:#FF4C36;" d="M447,512c-24.813,0-45-20.187-45-45V351h90v116C492,491.813,471.813,512,447,512z"/>
<path style="fill:#FF623A;" d="M387,512c-24.813,0-45-20.187-45-45V351h90v116C432,491.813,411.813,512,387,512z"/>
<path style="fill:#8780EF;" d="M201,201H0v-36c0-35.841,29.159-65,65-65h71c35.841,0,65,29.159,65,65V201z"/>
<path style="fill:#78EE49;" d="M358,201H157v-36c0-35.841,29.159-65,65-65h71c35.841,0,65,29.159,65,65V201z"/>
<path style="fill:#00E6B9;" d="M358,165c0-35.841-29.159-65-65-65h-37v101h102V165z"/>
<path style="fill:#FF9B41;" d="M99,130c-35.841,0-65-29.159-65-65S63.159,0,99,0s65,29.159,65,65S134.841,130,99,130z"/>
<path style="fill:#FFD9A5;" d="M256,130c-35.841,0-65-29.159-65-65s29.159-65,65-65s65,29.159,65,65S291.841,130,256,130z"/>
<path style="fill:#FF9800;" d="M512,201H311v-36c0-35.841,29.159-65,65-65h71c35.841,0,65,29.159,65,65V201z"/>
<path style="fill:#C49374;" d="M410,130c-35.841,0-65-29.159-65-65s29.159-65,65-65s65,29.159,65,65S445.841,130,410,130z"/>
<path style="fill:#FFC36E;" d="M256,0v130c35.841,0,65-29.159,65-65S291.841,0,256,0z"/>
<path style="fill:#FF8A2D;" d="M99,0v130c35.841,0,65-29.159,65-65S134.841,0,99,0z"/>
<path style="fill:#AB7C67;" d="M410,0v130c35.841,0,65-29.159,65-65S445.841,0,410,0z"/>
<path style="fill:#93635B;" d="M512,381H0V171h512V381z"/>
<rect x="256" y="171" style="fill:#7F554E;" width="256" height="210"/>
<g>
	<path style="fill:#FFD9A5;" d="M115.202,276.08V304h-15.6v-56.8h12.16l22.8,28.88V247.2h15.6V304h-12.4L115.202,276.08z"/>
	<path style="fill:#FFD9A5;" d="M184.001,304.48c-4.054,0-7.748-0.827-11.08-2.48c-3.333-1.652-6.188-3.826-8.56-6.52
		c-2.374-2.693-4.213-5.773-5.52-9.24c-1.307-3.467-1.96-7.04-1.96-10.721c0-3.732,0.68-7.332,2.04-10.8
		c1.36-3.466,3.267-6.52,5.72-9.16c2.453-2.64,5.346-4.746,8.68-6.319c3.332-1.572,7-2.36,11-2.36c4.053,0,7.747,0.827,11.08,2.48
		c3.333,1.653,6.187,3.84,8.56,6.56s4.2,5.813,5.48,9.28c1.28,3.468,1.92,7.014,1.92,10.64c0,3.734-0.68,7.32-2.04,10.76
		s-3.24,6.48-5.64,9.12c-2.4,2.641-5.28,4.761-8.64,6.36C191.682,303.68,188.001,304.48,184.001,304.48z M172.722,275.68
		c0,1.92,0.226,3.774,0.68,5.561c0.453,1.787,1.16,3.373,2.12,4.76c0.96,1.388,2.16,2.508,3.6,3.36
		c1.44,0.853,3.12,1.279,5.04,1.279c1.972,0,3.68-0.439,5.12-1.319s2.612-2.026,3.52-3.44c0.906-1.412,1.586-3.026,2.04-4.84
		c0.453-1.813,0.68-3.652,0.68-5.521c0-1.92-0.24-3.772-0.72-5.56c-0.48-1.786-1.188-3.36-2.12-4.72
		c-0.934-1.36-2.12-2.453-3.56-3.28c-1.44-0.826-3.12-1.24-5.04-1.24c-1.974,0-3.667,0.428-5.08,1.28
		c-1.414,0.853-2.587,1.987-3.52,3.4c-0.934,1.413-1.627,3.014-2.08,4.8C172.948,271.987,172.722,273.814,172.722,275.68z"/>
	<path style="fill:#FFD9A5;" d="M251.52,247.2h14.32l4.96,17.52l5.04-17.52h14.32l-9.36,27.12l4.08,11.84l12.24-38.96h16.96
		L291.84,304h-12.96l-8.08-20.32l-8,20.32h-12.96l-22.24-56.8h16.88l12.32,38.96l3.92-11.84L251.52,247.2z"/>
</g>
<g>
	<path style="fill:#FFC36E;" d="M308.08,304l21.2-56.8h12.64l21.12,56.8h-16.48l-3.44-11.12H328L324.64,304H308.08z M335.6,263.44
		l-5.28,19.04h10.32L335.6,263.44z"/>
	<path style="fill:#FFC36E;" d="M367.278,304v-56.8h26.08c2.772,0,5.332,0.573,7.68,1.72c2.346,1.147,4.36,2.64,6.04,4.48
		c1.68,1.84,3,3.947,3.96,6.319c0.96,2.374,1.44,4.761,1.44,7.16c0,3.308-0.72,6.388-2.16,9.24c-1.44,2.854-3.44,5.188-6,7
		l12.8,20.88h-17.6l-10.8-17.44h-5.84V304H367.278z M382.878,272.96h9.84c0.96,0,1.853-0.532,2.68-1.6
		c0.826-1.066,1.24-2.561,1.24-4.48c0-1.973-0.48-3.48-1.44-4.52c-0.96-1.04-1.92-1.561-2.88-1.561h-9.44L382.878,272.96
		L382.878,272.96z"/>
</g>
<path style="fill:#FF9B41;" d="M40,316H0v-80h40c22.056,0,40,17.944,40,40S62.056,316,40,316z"/>
<path style="fill:#AB7C67;" d="M512,316h-40c-22.056,0-40-17.944-40-40s17.944-40,40-40h40V316z"/>
<polygon style="fill:#FFC36E;" points="297.121,247.2 284.88,286.16 280.8,274.32 290.161,247.2 275.84,247.2 270.8,264.72 
	265.84,247.2 256,247.2 256,260.405 260.721,274.32 256.8,286.16 256,283.629 256,304 262.8,304 270.8,283.68 278.88,304 
	291.84,304 314.081,247.2 "/>
<g>
</g>
<g>
</g>
<g>
</g>
<g>
</g>
<g>
</g>
<g>
</g>
<g>
</g>
<g>
</g>
<g>
</g>
<g>
</g>
<g>
</g>
<g>
</g>
<g>
</g>
<g>
</g>
<g>
</g>
</svg>
