<?xml version="1.0" encoding="iso-8859-1"?>
<!-- Generator: Adobe Illustrator 19.0.0, SVG Export Plug-In . SVG Version: 6.00 Build 0)  -->
<svg version="1.1" id="Capa_1" xmlns="http://www.w3.org/2000/svg" xmlns:xlink="http://www.w3.org/1999/xlink" x="0px" y="0px"
	 viewBox="0 0 512 512" style="enable-background:new 0 0 512 512;" xml:space="preserve">
<path style="fill:#FF623A;" d="M512,365.5H314V139.589h89.904l42,77H457c30.327,0,55,24.673,55,55V365.5z"/>
<path style="fill:#FF3C22;" d="M344,365.5H0v-260h344V365.5z"/>
<path style="fill:#CE2200;" d="M344,365.5h-88v-260h88V365.5z"/>
<path style="fill:#7F554E;" d="M413,406.5c-30.327,0-55-24.673-55-55s24.673-55,55-55s55,24.673,55,55S443.327,406.5,413,406.5z"/>
<path style="fill:#93635B;" d="M103,406.5c-30.327,0-55-24.673-55-55s24.673-55,55-55s55,24.673,55,55S133.327,406.5,103,406.5z"/>
<g>
	<path style="fill:#FF9800;" d="M205.8,243.14c1.813,0,3.36-0.399,4.64-1.199c1.28-0.801,2.32-1.853,3.12-3.16
		c0.8-1.307,1.386-2.813,1.76-4.521c0.373-1.706,0.56-3.492,0.56-5.359v-29.2h15.6v29.2c0,3.947-0.507,7.64-1.52,11.08
		c-1.014,3.439-2.587,6.413-4.72,8.92c-2.134,2.507-4.814,4.479-8.04,5.92c-3.228,1.439-7.027,2.16-11.4,2.16
		c-4.534,0-8.414-0.761-11.64-2.28c-3.228-1.521-5.88-3.561-7.96-6.12c-2.08-2.561-3.6-5.532-4.56-8.92
		c-0.96-3.387-1.44-6.973-1.44-10.76v-29.2h15.6v29.2c0,1.867,0.186,3.667,0.56,5.399c0.373,1.734,0.96,3.254,1.76,4.561
		c0.8,1.308,1.826,2.347,3.08,3.12C202.453,242.754,203.986,243.14,205.8,243.14z"/>
	<path style="fill:#FF9800;" d="M255.96,228.58v27.92h-15.6v-56.8h12.16l22.8,28.88V199.7h15.6v56.8h-12.4L255.96,228.58z"/>
</g>
<path style="fill:#FFDF34;" d="M106,274.5c-33.084,0-60-26.916-60-60s26.916-60,60-60s60,26.916,60,60S139.084,274.5,106,274.5z"/>
<polygon style="fill:#FF623A;" points="275.32,199.7 275.32,228.58 256,204.108 256,228.63 278.52,256.5 290.92,256.5 290.92,199.7 
	"/>
<g>
</g>
<g>
</g>
<g>
</g>
<g>
</g>
<g>
</g>
<g>
</g>
<g>
</g>
<g>
</g>
<g>
</g>
<g>
</g>
<g>
</g>
<g>
</g>
<g>
</g>
<g>
</g>
<g>
</g>
</svg>
