<?xml version="1.0" encoding="iso-8859-1"?>
<!-- Generator: Adobe Illustrator 19.0.0, SVG Export Plug-In . SVG Version: 6.00 Build 0)  -->
<svg version="1.1" id="Capa_1" xmlns="http://www.w3.org/2000/svg" xmlns:xlink="http://www.w3.org/1999/xlink" x="0px" y="0px"
	 viewBox="0 0 512 512" style="enable-background:new 0 0 512 512;" xml:space="preserve">
<path style="fill:#FFD9A5;" d="M461,462H51V255c0-113.037,91.962-205,205-205s205,91.963,205,205V462z"/>
<path style="fill:#FFC36E;" d="M461,255c0-113.037-91.962-205-205-205v412h205V255z"/>
<path style="fill:#FF3C22;" d="M256,80c-22.056,0-40-17.944-40-40s17.944-40,40-40s40,17.944,40,40S278.056,80,256,80z M256,30
	c-5.514,0-10,4.486-10,10s4.486,10,10,10s10-4.486,10-10S261.514,30,256,30z"/>
<path style="fill:#CE2200;" d="M256,0v30c5.514,0,10,4.486,10,10s-4.486,10-10,10v30c22.056,0,40-17.944,40-40S278.056,0,256,0z"/>
<path style="fill:#00E6B9;" d="M125.792,422.137l-10.606-10.606c-29.243-29.242-29.243-76.823,0-106.065l10.606-10.606l63.64,63.639
	L125.792,422.137z"/>
<path style="fill:#8780EF;" d="M238.929,402.786c-30.718,0-59.597-11.962-81.317-33.683l-10.607-10.606L309.64,195.863
	l10.606,10.606c21.721,21.721,33.683,50.6,33.683,81.317s-11.962,59.597-33.683,81.316
	C298.526,390.824,269.646,402.786,238.929,402.786z"/>
<rect x="349" y="208" style="fill:#FF9A00;" width="49" height="30"/>
<path style="fill:#746ED0;" d="M320.246,206.47l-10.606-10.606L256,249.503v152.033c24.238-3.585,46.604-14.789,64.246-32.432
	c21.721-21.72,33.683-50.599,33.683-81.316S341.967,228.19,320.246,206.47z"/>
<path style="fill:#FFF65C;" d="M309.64,272.076c-14.691,0-28.503-5.721-38.891-16.109c-21.444-21.444-21.444-56.337,0-77.781
	c10.388-10.389,24.199-16.109,38.891-16.109c14.691,0,28.502,5.721,38.891,16.109c21.445,21.444,21.445,56.337,0,77.781
	C338.142,266.355,324.331,272.076,309.64,272.076z"/>
<rect x="252.007" y="284.639" transform="matrix(-0.7071 -0.7071 0.7071 -0.7071 229.5398 735.0668)" style="fill:#78EE49;" width="30" height="70.709"/>
<polygon style="fill:#00E6B9;" points="256,352.213 302.606,305.606 281.394,284.394 256,309.787 "/>
<g>
	<path style="fill:#C49374;" d="M461,462H51V255c0-113.037,91.962-205,205-205s205,91.963,205,205V462z M81,432h350V255
		c0-96.495-78.505-175-175-175S81,158.505,81,255V432z"/>
	<rect x="241" y="71" style="fill:#C49374;" width="30" height="372"/>
</g>
<path style="fill:#AB7C67;" d="M256,50v30c96.495,0,175,78.505,175,175v177H256v30h205V255C461,141.963,369.038,50,256,50z"/>
<path style="fill:#FF9800;" d="M374,447h-30V255c0-48.298-10.07-93.473-28.355-127.202C298.936,96.975,277.753,80,256,80
	s-42.936,16.975-59.645,47.798C178.07,161.527,168,206.702,168,255v192h-30V255c0-53.204,11.358-103.456,31.981-141.499
	C192.18,72.552,222.729,50,256,50s63.82,22.552,86.019,63.501C362.642,151.544,374,201.796,374,255V447z"/>
<rect x="256" y="71" style="fill:#AB7C67;" width="15" height="372"/>
<path style="fill:#FF623A;" d="M342.019,113.501C319.82,72.552,289.271,50,256,50v30c21.753,0,42.936,16.975,59.645,47.798
	C333.93,161.527,344,206.702,344,255v192h30V255C374,201.796,362.642,151.544,342.019,113.501z"/>
<path style="fill:#93635B;" d="M472,512H40c-22.056,0-40-17.944-40-40s17.944-40,40-40h432c22.056,0,40,17.944,40,40
	S494.056,512,472,512z"/>
<path style="fill:#7F554E;" d="M472,432H256v80h216c22.056,0,40-17.944,40-40S494.056,432,472,432z"/>
<g>
</g>
<g>
</g>
<g>
</g>
<g>
</g>
<g>
</g>
<g>
</g>
<g>
</g>
<g>
</g>
<g>
</g>
<g>
</g>
<g>
</g>
<g>
</g>
<g>
</g>
<g>
</g>
<g>
</g>
</svg>
