<?xml version="1.0" encoding="iso-8859-1"?>
<!-- Generator: Adobe Illustrator 19.0.0, SVG Export Plug-In . SVG Version: 6.00 Build 0)  -->
<svg version="1.1" id="Capa_1" xmlns="http://www.w3.org/2000/svg" xmlns:xlink="http://www.w3.org/1999/xlink" x="0px" y="0px"
	 viewBox="0 0 512 512" style="enable-background:new 0 0 512 512;" xml:space="preserve">
<path style="fill:#93635B;" d="M80,271H40c-22.056,0-40-17.944-40-40s17.944-40,40-40h40V271z"/>
<path style="fill:#7F554E;" d="M0,231c0,22.056,17.944,40,40,40h40v-40H0z"/>
<path style="fill:#93635B;" d="M351,271H170v-80h181V271z"/>
<path style="fill:#7F554E;" d="M351,271H170v-40h181V271z"/>
<path style="fill:#FFD9A5;" d="M200,326H50V136h150V326z"/>
<path style="fill:#FF623A;" d="M462,281H321V181h141c27.57,0,50,22.43,50,50S489.57,281,462,281z"/>
<rect x="50" y="231" style="fill:#FFC36E;" width="150" height="95"/>
<path style="fill:#FF623A;" d="M190,376H60c-22.056,0-40-17.944-40-40s17.944-40,40-40h130c22.056,0,40,17.944,40,40
	S212.056,376,190,376z"/>
<path style="fill:#FF9800;" d="M190,166H60c-22.056,0-40-17.944-40-40s17.944-40,40-40h130c22.056,0,40,17.944,40,40
	S212.056,166,190,166z"/>
<path style="fill:#FF4C36;" d="M321,281h141c27.57,0,50-22.43,50-50H321V281z"/>
<path style="fill:#C49374;" d="M512,426H0v-80h512V426z"/>
<rect x="256" y="346" style="fill:#AB7C67;" width="256" height="80"/>
<g>
</g>
<g>
</g>
<g>
</g>
<g>
</g>
<g>
</g>
<g>
</g>
<g>
</g>
<g>
</g>
<g>
</g>
<g>
</g>
<g>
</g>
<g>
</g>
<g>
</g>
<g>
</g>
<g>
</g>
</svg>
