<?xml version="1.0" encoding="iso-8859-1"?>
<!-- Generator: Adobe Illustrator 19.0.0, SVG Export Plug-In . SVG Version: 6.00 Build 0)  -->
<svg version="1.1" id="Capa_1" xmlns="http://www.w3.org/2000/svg" xmlns:xlink="http://www.w3.org/1999/xlink" x="0px" y="0px"
	 viewBox="0 0 512 512" style="enable-background:new 0 0 512 512;" xml:space="preserve">
<path style="fill:#FFF5CB;" d="M256,512c-68.38,0-132.667-26.629-181.02-74.98C26.629,388.667,0,324.38,0,256
	S26.629,123.333,74.98,74.98C123.333,26.629,187.62,0,256,0s132.667,26.629,181.02,74.98C485.371,123.333,512,187.62,512,256
	s-26.629,132.667-74.98,181.02C388.667,485.371,324.38,512,256,512z"/>
<path style="fill:#FFDBA9;" d="M437.02,74.98C388.667,26.629,324.38,0,256,0v512c68.38,0,132.667-26.629,181.02-74.98
	C485.371,388.667,512,324.38,512,256S485.371,123.333,437.02,74.98z"/>
<path style="fill:#7F554E;" d="M183.521,259.146l-25.305-25.305h-28.284l-32.619-32.618l59.17-41.24l41.24-59.17l32.618,32.619
	l-0.001,28.284l25.306,25.305L183.521,259.146z"/>
<path style="fill:#FF9800;" d="M302.315,390.816c-22.704,0-44.05-8.842-60.104-24.896L138.267,261.975l120.208-120.208
	L362.42,245.711c33.141,33.142,33.141,87.066,0,120.208l0,0C346.365,381.974,325.021,390.816,302.315,390.816z"/>
<path style="fill:#FF623A;" d="M362.42,245.711L258.475,141.767L256,144.241V377.1c13.663,8.917,29.618,13.715,46.315,13.715
	c22.705,0,44.05-8.842,60.104-24.896C395.561,332.778,395.561,278.853,362.42,245.711z"/>
<path style="fill:#FF3C22;" d="M143.646,423.472l-56.568-56.568L363.403,90.579l56.568,56.568L143.646,423.472z"/>
<polygon style="fill:#CE2200;" points="256,311.118 419.972,147.146 363.403,90.579 256,197.982 "/>
<path style="fill:#FF3C22;" d="M437.02,74.98C388.667,26.629,324.38,0,256,0S123.333,26.629,74.98,74.98
	C26.629,123.333,0,187.62,0,256s26.629,132.667,74.98,181.02C123.333,485.371,187.62,512,256,512s132.667-26.629,181.02-74.98
	C485.371,388.667,512,324.38,512,256S485.371,123.333,437.02,74.98z M256,86c93.738,0,170,76.262,170,170s-76.262,170-170,170
	S86,349.738,86,256S162.262,86,256,86z"/>
<path style="fill:#FF4F19;" d="M1,233.36c-0.652,7.487-1,15.036-1,22.64s0.348,15.154,1,22.64V233.36z"/>
<path style="fill:#CE2200;" d="M437.02,74.98C388.667,26.629,324.38,0,256,0v86c93.738,0,170,76.262,170,170s-76.262,170-170,170v86
	c68.38,0,132.667-26.629,181.02-74.98C485.371,388.667,512,324.38,512,256S485.371,123.333,437.02,74.98z"/>
<g>
</g>
<g>
</g>
<g>
</g>
<g>
</g>
<g>
</g>
<g>
</g>
<g>
</g>
<g>
</g>
<g>
</g>
<g>
</g>
<g>
</g>
<g>
</g>
<g>
</g>
<g>
</g>
<g>
</g>
</svg>
