<?xml version="1.0" encoding="iso-8859-1"?>
<!-- Generator: Adobe Illustrator 19.0.0, SVG Export Plug-In . SVG Version: 6.00 Build 0)  -->
<svg version="1.1" id="Capa_1" xmlns="http://www.w3.org/2000/svg" xmlns:xlink="http://www.w3.org/1999/xlink" x="0px" y="0px"
	 viewBox="0 0 512 512" style="enable-background:new 0 0 512 512;" xml:space="preserve">
<path style="fill:#00E6B9;" d="M456,370H56V85c0-46.869,38.131-85,85-85h230c46.869,0,85,38.131,85,85V370z"/>
<path style="fill:#00CCCB;" d="M456,85c0-46.869-38.131-85-85-85H256v370h200V85z"/>
<path style="fill:#A7AFF2;" d="M456,71.968c-0.799-5.158-2.082-10.157-3.77-14.968H60.773C57.694,65.774,56,75.191,56,85v125h400
	V71.968z"/>
<path style="fill:#7985EB;" d="M456,71.968c-0.799-5.158-2.082-10.157-3.77-14.968H256v153h200V71.968z"/>
<rect x="241" y="57" style="fill:#FFDF34;" width="30" height="138"/>
<rect x="256" y="57" style="fill:#FF9B41;" width="15" height="138"/>
<path style="fill:#FF623A;" d="M326,370H186v-15c0-63.411-51.589-115-115-115H56v-60h400v60h-15c-63.411,0-115,51.589-115,115V370z"
	/>
<path style="fill:#FF4C36;" d="M256,180v190h70v-15c0-63.411,51.589-115,115-115h15v-60H256z"/>
<path style="fill:#93635B;" d="M168,512H56V400h112V512z"/>
<path style="fill:#7F554E;" d="M456,512H344V400h112V512z"/>
<circle style="fill:#FFDF34;" cx="124" cy="304" r="15"/>
<circle style="fill:#FF9B41;" cx="388" cy="304" r="15"/>
<path style="fill:#FFDF34;" d="M256,306c-22.607,0-41-18.393-41-41s18.393-41,41-41s41,18.393,41,41S278.607,306,256,306z"/>
<path style="fill:#FF9B41;" d="M256,224v82c22.607,0,41-18.393,41-41S278.607,224,256,224z"/>
<path style="fill:#78EE49;" d="M467,430H45c-24.813,0-45-20.187-45-45s20.187-45,45-45h422c24.813,0,45,20.187,45,45
	S491.813,430,467,430z"/>
<path style="fill:#00E6B9;" d="M467,340H256v90h211c24.813,0,45-20.187,45-45S491.813,340,467,340z"/>
<g>
</g>
<g>
</g>
<g>
</g>
<g>
</g>
<g>
</g>
<g>
</g>
<g>
</g>
<g>
</g>
<g>
</g>
<g>
</g>
<g>
</g>
<g>
</g>
<g>
</g>
<g>
</g>
<g>
</g>
</svg>
