<?xml version="1.0" encoding="iso-8859-1"?>
<!-- Generator: Adobe Illustrator 19.0.0, SVG Export Plug-In . SVG Version: 6.00 Build 0)  -->
<svg version="1.1" id="Capa_1" xmlns="http://www.w3.org/2000/svg" xmlns:xlink="http://www.w3.org/1999/xlink" x="0px" y="0px"
	 viewBox="0 0 512 512" style="enable-background:new 0 0 512 512;" xml:space="preserve">
<path style="fill:#C49374;" d="M456,512H56V219.763L256,20.844l200,198.919V512z"/>
<polygon style="fill:#AB7C67;" points="456,219.763 256,20.844 256,512 456,512 "/>
<path style="fill:#93635B;" d="M452.008,313L255.886,115.238L57.75,310.763L1.109,254.262L256,0l254.891,254.262L452.008,313z"/>
<path style="fill:#FFC36E;" d="M340.5,469c-21.78,0-39.5-17.72-39.5-39.5V322h39.5c21.78,0,39.5,17.72,39.5,39.5v68
	C380,451.28,362.28,469,340.5,469z"/>
<path style="fill:#FFD9A5;" d="M171.5,469c-21.78,0-39.5-17.72-39.5-39.5v-68c0-21.78,17.72-39.5,39.5-39.5H211v107.5
	C211,451.28,193.28,469,171.5,469z"/>
<polygon style="fill:#7F554E;" points="510.891,254.262 256,0 256,115.354 452.008,313 "/>
<path style="fill:#00E6B9;" d="M331,512H181V322h150V512z"/>
<rect x="256" y="322" style="fill:#00CCCB;" width="75" height="190"/>
<path style="fill:#FFD9A5;" d="M256,352c-38.599,0-70-31.402-70-70s31.401-70,70-70s70,31.402,70,70S294.599,352,256,352z"/>
<path style="fill:#FFC36E;" d="M256,212v140c38.599,0,70-31.402,70-70S294.599,212,256,212z"/>
<g>
</g>
<g>
</g>
<g>
</g>
<g>
</g>
<g>
</g>
<g>
</g>
<g>
</g>
<g>
</g>
<g>
</g>
<g>
</g>
<g>
</g>
<g>
</g>
<g>
</g>
<g>
</g>
<g>
</g>
</svg>
