<?xml version="1.0" encoding="iso-8859-1"?>
<!-- Generator: Adobe Illustrator 19.0.0, SVG Export Plug-In . SVG Version: 6.00 Build 0)  -->
<svg version="1.1" id="Capa_1" xmlns="http://www.w3.org/2000/svg" xmlns:xlink="http://www.w3.org/1999/xlink" x="0px" y="0px"
	 viewBox="0 0 512 512" style="enable-background:new 0 0 512 512;" xml:space="preserve">
<path style="fill:#FF9B41;" d="M374.362,325.875L230.99,182.503l82.774-82.774l143.372,143.373L374.362,325.875z"/>
<rect x="331.032" y="190.859" transform="matrix(-0.7071 -0.7071 0.7071 -0.7071 473.4779 694.8998)" style="fill:#FF8A2D;" width="99.25" height="117.06"/>
<path style="fill:#FFD9A5;" d="M279.547,448.838c-12.623,0-24.49-4.917-33.416-13.842L52.353,241.218l139.914-139.914
	l193.778,193.778c18.426,18.426,18.426,48.406,0,66.833l-73.082,73.081C304.037,443.921,292.17,448.838,279.547,448.838z"/>
<path style="fill:#FFC36E;" d="M52.353,241.218L246.13,434.996c8.926,8.926,20.793,13.842,33.416,13.842s24.49-4.917,33.416-13.842
	l36.54-36.54L122.309,171.262L52.353,241.218z"/>
<path style="fill:#FF8A2D;" d="M221.778,463.676c-9.128,0-18.257-3.475-25.206-10.425l-2.219-2.22
	c-13.9-13.899-13.9-36.514,0-50.412l33.615-33.616c13.9-13.899,36.516-13.9,50.413,0l2.22,2.22
	c13.898,13.898,13.898,36.513-0.001,50.411l-33.615,33.616C240.036,460.203,230.906,463.676,221.778,463.676z"/>
<path style="fill:#FF9B41;" d="M190.382,432.28c-9.129,0-18.256-3.474-25.206-10.423l-2.219-2.219
	c-6.734-6.732-10.442-15.684-10.443-25.206c0-9.523,3.708-18.475,10.442-25.208l0,0l33.616-33.615
	c6.733-6.734,15.685-10.442,25.206-10.442c9.522,0,18.474,3.708,25.206,10.442l2.219,2.22c6.734,6.733,10.441,15.685,10.441,25.206
	s-3.708,18.474-10.441,25.206l-33.615,33.615C208.641,428.805,199.511,432.28,190.382,432.28z"/>
<path style="fill:#FFB74F;" d="M231.741,275.435c-20.522,0-37.218-16.696-37.218-37.218v-44.4c0-10.007,4.107-19.705,11.283-26.684
	c0.156-0.166,0.301-0.315,0.45-0.463l31.396-31.396c7.029-7.029,16.374-10.901,26.316-10.901c9.942,0,19.288,3.871,26.316,10.901
	c14.51,14.511,14.51,38.122,0,52.633l-21.326,21.326v28.984C268.958,258.739,252.262,275.435,231.741,275.435z"/>
<path style="fill:#CE2200;" d="M55.38,280.666L0,225.285L176.333,48.952l55.38,55.38L55.38,280.666z"/>
<path style="fill:#8780EF;" d="M456.62,280.037L280.287,103.704l55.38-55.38L512,224.657L456.62,280.037z"/>
<rect x="97.593" y="81.563" transform="matrix(-0.7071 0.7071 -0.7071 -0.7071 358.3933 92.9915)" style="fill:#FF3C22;" width="124.688" height="78.317"/>
<rect x="400.945" y="145.654" transform="matrix(-0.7071 0.7071 -0.7071 -0.7071 898.493 44.1488)" style="fill:#746ED0;" width="78.317" height="125.009"/>
<path style="fill:#FF8A2D;" d="M158.987,400.885c-9.13,0-18.256-3.474-25.206-10.425l-2.219-2.219
	c-6.734-6.733-10.442-15.685-10.442-25.206c0-9.522,3.708-18.474,10.442-25.206l0,0l33.616-33.615c13.9-13.9,36.515-13.9,50.412,0
	l2.218,2.217c6.735,6.735,10.442,15.687,10.442,25.208s-3.708,18.474-10.441,25.206l-33.616,33.616
	C177.244,397.409,168.114,400.885,158.987,400.885z"/>
<path style="fill:#FF9B41;" d="M127.591,369.488c-9.129,0-18.256-3.474-25.206-10.423l-2.219-2.219
	c-6.735-6.734-10.443-15.686-10.443-25.207s3.708-18.475,10.441-25.207l33.616-33.616c13.899-13.9,36.515-13.9,50.413-0.002
	l2.219,2.219c6.735,6.734,10.443,15.685,10.443,25.207c0,9.522-3.707,18.474-10.44,25.207l-33.617,33.616
	C145.849,366.013,136.719,369.488,127.591,369.488z"/>
<g>
</g>
<g>
</g>
<g>
</g>
<g>
</g>
<g>
</g>
<g>
</g>
<g>
</g>
<g>
</g>
<g>
</g>
<g>
</g>
<g>
</g>
<g>
</g>
<g>
</g>
<g>
</g>
<g>
</g>
</svg>
