<?xml version="1.0" encoding="iso-8859-1"?>
<!-- Generator: Adobe Illustrator 19.0.0, SVG Export Plug-In . SVG Version: 6.00 Build 0)  -->
<svg version="1.1" id="Capa_1" xmlns="http://www.w3.org/2000/svg" xmlns:xlink="http://www.w3.org/1999/xlink" x="0px" y="0px"
	 viewBox="0 0 512 512" style="enable-background:new 0 0 512 512;" xml:space="preserve">
<rect x="469" y="166" style="fill:#FF9A00;" width="43" height="30"/>
<path style="fill:#00CCCB;" d="M206,221H76v-15c0-63.411,51.589-115,115-115h15V221z"/>
<path style="fill:#8780EF;" d="M311,341c-74.439,0-135-60.561-135-135v-15h270v15C446,280.439,385.439,341,311,341z"/>
<path style="fill:#746ED0;" d="M256,191v138.278C272.808,336.806,291.423,341,311,341c74.439,0,135-60.561,135-135v-15H256z"/>
<path style="fill:#FFB74F;" d="M401.729,421H237.632l-110-70H0V241h165.368l110,70h116.903l44.565-31.196
	c14.647-10.252,33.596-11.493,49.454-3.236S512,301.06,512,318.938c0,15.574-7.617,30.204-20.376,39.134l0,0L401.729,421z"/>
<path style="fill:#FFDF34;" d="M426,243c-35.841,0-65-29.159-65-65s29.159-65,65-65s65,29.159,65,65S461.841,243,426,243z"/>
<path style="fill:#FF9A00;" d="M512,318.938c0-17.878-9.851-34.114-25.709-42.371s-34.807-7.016-49.454,3.236L392.271,311H275.368
	L256,298.675V421h145.729l89.896-62.927l0,0C504.383,349.142,512,334.513,512,318.938z"/>
<path style="fill:#FFD9A5;" d="M307,351H173c-30.327,0-55-24.673-55-55s24.673-55,55-55h134c30.327,0,55,24.673,55,55
	S337.327,351,307,351z"/>
<path style="fill:#FFC36E;" d="M307,241h-51v110h51c30.327,0,55-24.673,55-55S337.327,241,307,241z"/>
<g>
</g>
<g>
</g>
<g>
</g>
<g>
</g>
<g>
</g>
<g>
</g>
<g>
</g>
<g>
</g>
<g>
</g>
<g>
</g>
<g>
</g>
<g>
</g>
<g>
</g>
<g>
</g>
<g>
</g>
</svg>
