<?xml version="1.0" encoding="iso-8859-1"?>
<!-- Generator: Adobe Illustrator 19.0.0, SVG Export Plug-In . SVG Version: 6.00 Build 0)  -->
<svg version="1.1" id="Capa_1" xmlns="http://www.w3.org/2000/svg" xmlns:xlink="http://www.w3.org/1999/xlink" x="0px" y="0px"
	 viewBox="0 0 512 512" style="enable-background:new 0 0 512 512;" xml:space="preserve">
<path style="fill:#C49374;" d="M230,371h-15c-49.626,0-90-40.374-90-90c0-19.299,15.701-35,35-35h10c19.299,0,35,15.701,35,35
	c0,5.514,4.486,10,10,10h15V371z"/>
<path style="fill:#AB7C67;" d="M297,371h-15v-80h15c5.514,0,10-4.486,10-10c0-19.299,15.701-35,35-35h10c19.299,0,35,15.701,35,35
	C387,330.626,346.626,371,297,371z"/>
<path style="fill:#8780EF;" d="M312,431H200V291h112V431z"/>
<rect x="256" y="291" style="fill:#746ED0;" width="56" height="140"/>
<path style="fill:#C49374;" d="M349.415,260c-10.528,0-20.426-4.1-27.87-11.544C314.101,241.011,310,231.113,310,220.585
	s4.101-20.426,11.545-27.871l71.17-71.169C400.159,114.1,410.057,110,420.585,110s20.426,4.1,27.87,11.544
	c7.444,7.444,11.545,17.342,11.545,27.871s-4.101,20.426-11.545,27.871l-71.17,71.169C369.841,255.9,359.943,260,349.415,260z"/>
<path style="fill:#7F554E;" d="M163.585,260c-10.528,0-20.426-4.1-27.87-11.544l-71.17-71.17C57.101,169.841,53,159.943,53,149.415
	s4.101-20.426,11.545-27.871C71.989,114.1,81.887,110,92.415,110s20.426,4.1,27.87,11.544l71.17,71.17
	c7.444,7.444,11.545,17.342,11.545,27.871s-4.101,20.426-11.545,27.871l0,0C184.011,255.9,174.113,260,163.585,260z"/>
<path style="fill:#C49374;" d="M467,512c-24.813,0-45-20.187-45-45V360h90v107C512,491.813,491.813,512,467,512z"/>
<path style="fill:#FF9A00;" d="M512,290h-90V110h90V290z"/>
<path style="fill:#C49374;" d="M512,140h-15c-38.599,0-70-31.402-70-70s31.401-70,70-70h15V140z"/>
<path style="fill:#FF4F19;" d="M512,390H392.788l32.5-130H512V390z"/>
<path style="fill:#FFB74F;" d="M90,334H0V110h90V334z"/>
<path style="fill:#7F554E;" d="M15,140H0V0h15c38.599,0,70,31.402,70,70S53.599,140,15,140z"/>
<path style="fill:#C49374;" d="M256,320c-26.467,0-48-21.533-48-48s21.533-48,48-48s48,21.533,48,48S282.467,320,256,320z"/>
<path style="fill:#AB7C67;" d="M256,224v96c26.467,0,48-21.533,48-48S282.467,224,256,224z"/>
<path style="fill:#FF633E;" d="M45,512c-24.813,0-45-20.187-45-45V304h90v163C90,491.813,69.813,512,45,512z"/>
<path style="fill:#746ED0;" d="M200,401v75.5c0,19.575,15.925,35.5,35.5,35.5c7.633,0,14.705-2.429,20.5-6.544
	c5.795,4.115,12.867,6.544,20.5,6.544c19.575,0,35.5-15.925,35.5-35.5V401H200z"/>
<path style="fill:#415BE8;" d="M256,401v104.456c5.795,4.115,12.867,6.544,20.5,6.544c19.575,0,35.5-15.925,35.5-35.5V401H256z"/>
<g>
</g>
<g>
</g>
<g>
</g>
<g>
</g>
<g>
</g>
<g>
</g>
<g>
</g>
<g>
</g>
<g>
</g>
<g>
</g>
<g>
</g>
<g>
</g>
<g>
</g>
<g>
</g>
<g>
</g>
</svg>
