<?xml version="1.0" encoding="iso-8859-1"?>
<!-- Generator: Adobe Illustrator 19.0.0, SVG Export Plug-In . SVG Version: 6.00 Build 0)  -->
<svg version="1.1" id="Capa_1" xmlns="http://www.w3.org/2000/svg" xmlns:xlink="http://www.w3.org/1999/xlink" x="0px" y="0px"
	 viewBox="0 0 512 512" style="enable-background:new 0 0 512 512;" xml:space="preserve">
<path style="fill:#FF3C22;" d="M362.245,155.321l24.515,24.515c4.774-13.914,7.263-28.656,7.263-43.777
	c0-36.413-14.389-70.633-40.516-96.356c-53.766-52.936-141.248-52.936-195.015,0c-26.126,25.723-40.515,59.944-40.515,96.356
	c0,15.107,2.484,29.833,7.247,43.734l24.555-24.495c60.263-53.271,152.211-53.264,212.465,0.021L362.245,155.321z"/>
<path style="fill:#CE2200;" d="M353.507,39.702C326.624,13.234,291.312,0,256,0v115.35c38.057,0,76.114,13.323,106.245,39.97v0.001
	l24.515,24.515c4.774-13.914,7.263-28.656,7.263-43.777C394.023,99.646,379.634,65.426,353.507,39.702z"/>
<path style="fill:#FF9800;" d="M338.77,204.13c17.514-20.412,48.37-64.918,54.179-85.195c2.181,8.919,0.074,67.116,0.074,67.116
	c0.07,47.039-8.993,92.932-26.941,136.406c-17.946,43.472-43.89,82.38-77.111,115.642L215.161,512l-91.938-92.054L338.77,204.13z"/>
<g>
	<path style="fill:#FF623A;" d="M392.949,118.935c-5.809,20.276-36.664,64.782-54.179,85.195l-82.771,82.874v184.108l32.971-33.012
		c33.22-33.262,59.164-72.17,77.111-115.642c17.947-43.472,27.011-89.366,26.941-136.406
		C393.023,186.052,395.13,127.855,392.949,118.935z"/>
	<path style="fill:#FF623A;" d="M173.229,204.13c-17.514-20.412-48.37-64.918-54.179-85.195c-2.181,8.919-0.074,67.116-0.074,67.116
		c-0.07,47.039,8.993,92.932,26.941,136.406c17.946,43.472,43.89,82.38,77.111,115.642L296.838,512l91.938-92.054L173.229,204.13z"
		/>
</g>
<polygon style="fill:#FF4C36;" points="256,287.004 256,471.111 296.838,512 388.776,419.946 "/>
<g>
</g>
<g>
</g>
<g>
</g>
<g>
</g>
<g>
</g>
<g>
</g>
<g>
</g>
<g>
</g>
<g>
</g>
<g>
</g>
<g>
</g>
<g>
</g>
<g>
</g>
<g>
</g>
<g>
</g>
</svg>
