<?xml version="1.0" encoding="iso-8859-1"?>
<!-- Generator: Adobe Illustrator 19.0.0, SVG Export Plug-In . SVG Version: 6.00 Build 0)  -->
<svg version="1.1" id="Capa_1" xmlns="http://www.w3.org/2000/svg" xmlns:xlink="http://www.w3.org/1999/xlink" x="0px" y="0px"
	 viewBox="0 0 512 512" style="enable-background:new 0 0 512 512;" xml:space="preserve">
<path style="fill:#FFF65C;" d="M256,512c-111.383,0-202-90.617-202-202V80h15c35.841,0,65-29.159,65-65V0h244v15
	c0,35.841,29.159,65,65,65h15v230C458,421.383,367.383,512,256,512z"/>
<path style="fill:#FFDF34;" d="M443,80c-35.841,0-65-29.159-65-65V0H256v512c111.383,0,202-90.617,202-202V80H443z"/>
<path style="fill:#FF623A;" d="M256,429c-68.925,0-125-56.075-125-125V127h15c19.299,0,35-15.701,35-35V77h150v15
	c0,19.299,15.701,35,35,35h15v177C381,372.925,324.925,429,256,429z"/>
<path style="fill:#FF4C36;" d="M366,127c-19.299,0-35-15.701-35-35V77h-75v352c68.925,0,125-56.075,125-125V127H366z"/>
<path style="fill:#78EE49;" d="M256,267.97c-16.645,0-33.29-6.336-45.962-19.008c-25.344-25.343-25.344-66.581,0-91.924L256,111.076
	l45.962,45.962c25.343,25.343,25.343,66.581,0,91.924l0,0C289.29,261.634,272.645,267.97,256,267.97z"/>
<path style="fill:#00E6B9;" d="M301.962,157.038L256,111.076l0,0V267.97l0,0c16.645,0,33.29-6.336,45.962-19.008l0,0
	C327.305,223.619,327.305,182.381,301.962,157.038z"/>
<rect x="241" y="214" style="fill:#93635B;" width="30" height="84"/>
<path style="fill:#B38A65;" d="M255,412c-37.168,0-118.606-78.606-118.606-78.606l7.927-7.927l0.257,0.257
	c30.848-27.084,69.997-41.873,111.422-41.873c45.181,0,87.658,17.595,119.606,49.543C375.606,333.394,292.168,412,255,412z"/>
<rect x="256" y="214" style="fill:#7F554E;" width="15" height="84"/>
<path style="fill:#8A6746;" d="M256,283.851L256,283.851v128.117c37.638-1.359,119.606-78.574,119.606-78.574
	C343.658,301.445,301.181,283.851,256,283.851z"/>
<path style="fill:#FF9800;" d="M256,429c-68.925,0-125-56.075-125-125V127h15c19.299,0,35-15.701,35-35V77h150v15
	c0,19.299,15.701,35,35,35h15v177C381,372.925,324.925,429,256,429z M161,155.253V304c0,52.383,42.617,95,95,95s95-42.617,95-95
	V155.253c-23.818-5.647-42.606-24.435-48.253-48.253h-93.493C203.606,130.818,184.818,149.606,161,155.253z"/>
<path style="fill:#FF623A;" d="M366,127c-19.299,0-35-15.701-35-35V77h-75v30h46.747c5.647,23.818,24.435,42.606,48.253,48.253V304
	c0,52.383-42.617,95-95,95v30c68.925,0,125-56.075,125-125V127H366z"/>
<g>
	<circle style="fill:#FFB74F;" cx="186" cy="53" r="15"/>
	<circle style="fill:#FFB74F;" cx="256" cy="53" r="15"/>
	<circle style="fill:#FFB74F;" cx="256" cy="456" r="15"/>
	<circle style="fill:#FFB74F;" cx="186" cy="438" r="15"/>
	<circle style="fill:#FFB74F;" cx="129" cy="388" r="15"/>
	<circle style="fill:#FFB74F;" cx="106" cy="317" r="15"/>
	<circle style="fill:#FFB74F;" cx="106" cy="237" r="15"/>
	<circle style="fill:#FFB74F;" cx="106" cy="157" r="15"/>
</g>
<g>
	<circle style="fill:#FF9A00;" cx="326" cy="53" r="15"/>
	<circle style="fill:#FF9A00;" cx="326" cy="438" r="15"/>
	<circle style="fill:#FF9A00;" cx="383" cy="388" r="15"/>
	<circle style="fill:#FF9A00;" cx="406" cy="317" r="15"/>
	<circle style="fill:#FF9A00;" cx="406" cy="237" r="15"/>
	<circle style="fill:#FF9A00;" cx="406" cy="157" r="15"/>
	<path style="fill:#FF9A00;" d="M256,441v30c8.284,0,15-6.716,15-15S264.284,441,256,441z"/>
	<path style="fill:#FF9A00;" d="M256,38v30c8.284,0,15-6.716,15-15S264.284,38,256,38z"/>
</g>
<g>
</g>
<g>
</g>
<g>
</g>
<g>
</g>
<g>
</g>
<g>
</g>
<g>
</g>
<g>
</g>
<g>
</g>
<g>
</g>
<g>
</g>
<g>
</g>
<g>
</g>
<g>
</g>
<g>
</g>
</svg>
