<?xml version="1.0" encoding="iso-8859-1"?>
<!-- Generator: Adobe Illustrator 19.0.0, SVG Export Plug-In . SVG Version: 6.00 Build 0)  -->
<svg version="1.1" id="Capa_1" xmlns="http://www.w3.org/2000/svg" xmlns:xlink="http://www.w3.org/1999/xlink" x="0px" y="0px"
	 viewBox="0 0 512 512" style="enable-background:new 0 0 512 512;" xml:space="preserve">
<path style="fill:#FFD9A5;" d="M95,512c-24.813,0-45-20.187-45-45V360h90v107C140,491.813,119.813,512,95,512z"/>
<path style="fill:#FFC36E;" d="M125,360v140.505c7.968,7.142,18.483,11.495,30,11.495c24.813,0,45-20.187,45-45V360H125z"/>
<path style="fill:#FFD9A5;" d="M40,290c-22.056,0-40-17.944-40-40V150c0-22.056,17.944-40,40-40h40v140
	C80,272.056,62.056,290,40,290z"/>
<path style="fill:#FFC36E;" d="M210,290c-22.056,0-40-17.944-40-40V110h40c22.056,0,40,17.944,40,40v100
	C250,272.056,232.056,290,210,290z"/>
<path style="fill:#AB7C67;" d="M472.5,290c-21.78,0-39.5-17.72-39.5-39.5V110h39.5c21.78,0,39.5,17.72,39.5,39.5v101
	C512,272.28,494.28,290,472.5,290z"/>
<path style="fill:#C49374;" d="M239.415,260c-10.528,0-20.426-4.1-27.871-11.544C204.1,241.011,200,231.113,200,220.585
	s4.1-20.426,11.544-27.871l71.17-71.17C290.159,114.1,300.057,110,310.585,110s20.426,4.1,27.871,11.544
	C345.9,128.989,350,138.887,350,149.415s-4.1,20.426-11.544,27.871l-71.17,71.17C259.841,255.9,249.943,260,239.415,260z"/>
<path style="fill:#FF9800;" d="M200,290H50V110h150V290z"/>
<path style="fill:#78EE49;" d="M463,320H313V110h150V320z"/>
<rect x="125" y="110" style="fill:#FF623A;" width="75" height="180"/>
<path style="fill:#FFD9A5;" d="M125,140c-38.598,0-70-31.402-70-70S86.402,0,125,0s70,31.402,70,70S163.598,140,125,140z"/>
<path style="fill:#FFC36E;" d="M125,0v140c38.598,0,70-31.402,70-70S163.598,0,125,0z"/>
<path style="fill:#FF4C36;" d="M229.211,390H20.789l32.5-130h143.423L229.211,390z"/>
<polygon style="fill:#FF3C22;" points="196.711,260 125,260 125,390 229.211,390 "/>
<rect x="388" y="110" style="fill:#00E6B9;" width="75" height="210"/>
<path style="fill:#C49374;" d="M388,140c-38.598,0-70-31.402-70-70s31.402-70,70-70s70,31.402,70,70S426.598,140,388,140z"/>
<path style="fill:#AB7C67;" d="M388,0v140c38.598,0,70-31.402,70-70S426.598,0,388,0z"/>
<path style="fill:#FFDF34;" d="M358,512c-24.813,0-45-20.187-45-45V310h90v157C403,491.813,382.813,512,358,512z"/>
<path style="fill:#FF9B41;" d="M388,310v190.505c7.968,7.142,18.483,11.495,30,11.495c24.813,0,45-20.187,45-45V310H388z"/>
<g>
</g>
<g>
</g>
<g>
</g>
<g>
</g>
<g>
</g>
<g>
</g>
<g>
</g>
<g>
</g>
<g>
</g>
<g>
</g>
<g>
</g>
<g>
</g>
<g>
</g>
<g>
</g>
<g>
</g>
</svg>
