<?xml version="1.0" encoding="iso-8859-1"?>
<!-- Generator: Adobe Illustrator 19.0.0, SVG Export Plug-In . SVG Version: 6.00 Build 0)  -->
<svg version="1.1" id="Capa_1" xmlns="http://www.w3.org/2000/svg" xmlns:xlink="http://www.w3.org/1999/xlink" x="0px" y="0px"
	 viewBox="0 0 512 512" style="enable-background:new 0 0 512 512;" xml:space="preserve">
<path style="fill:#746ED0;" d="M312,416c-110.28,0-200-89.72-200-200S201.72,16,312,16s200,89.72,200,200S422.28,416,312,416z"/>
<path style="fill:#415BE8;" d="M312,16v400c110.28,0,200-89.72,200-200S422.28,16,312,16z"/>
<path style="fill:#00E6B9;" d="M449.077,142.266c-14.179-6.515-30.113-11.899-47.279-16.064
	c-4.166-17.166-9.549-33.099-16.064-47.279C367.091,38.346,340.905,16,312,16s-55.091,22.346-73.734,62.923
	c-6.515,14.179-11.899,30.113-16.064,47.279c-17.166,4.166-33.099,9.549-47.279,16.064C134.346,160.909,112,187.095,112,216
	s22.346,55.091,62.923,73.734c14.18,6.515,30.113,11.899,47.279,16.064c4.165,17.166,9.549,33.099,16.064,47.279
	C256.909,393.654,283.095,416,312,416s55.091-22.346,73.734-62.923c6.515-14.179,11.899-30.113,16.064-47.279
	c17.166-4.166,33.099-9.549,47.279-16.064C489.653,271.091,512,244.905,512,216S489.653,160.909,449.077,142.266z M312,46
	c20.964,0,43.44,27.998,57.111,73.964C350.816,117.355,331.616,116,312,116s-38.816,1.355-57.111,3.964
	C268.56,73.998,291.036,46,312,46z M382,216c0,23.317-2,44.986-5.484,64.516C356.986,284,335.317,286,312,286
	s-44.986-2-64.516-5.484C244,260.986,242,239.317,242,216s2-44.986,5.484-64.516C267.014,148,288.683,146,312,146
	s44.986,2,64.516,5.484C380,171.014,382,192.683,382,216z M142,216c0-20.964,27.998-43.439,73.964-57.111
	C213.355,177.184,212,196.384,212,216s1.355,38.816,3.964,57.111C169.998,259.439,142,236.964,142,216z M312,386
	c-20.964,0-43.44-27.998-57.111-73.964C273.184,314.645,292.384,316,312,316s38.816-1.355,57.111-3.964
	C355.44,358.002,332.964,386,312,386z M408.036,273.111C410.645,254.816,412,235.616,412,216s-1.355-38.816-3.964-57.111
	C454.002,172.561,482,195.036,482,216S454.002,259.439,408.036,273.111z"/>
<path style="fill:#00CCCB;" d="M449.077,142.266c-14.179-6.515-30.113-11.899-47.279-16.064
	c-4.166-17.166-9.549-33.099-16.064-47.279C367.091,38.346,340.905,16,312,16v30c20.964,0,43.44,27.998,57.111,73.964
	C350.816,117.355,331.616,116,312,116v30c23.317,0,44.986,2,64.516,5.484C380,171.014,382,192.683,382,216s-2,44.986-5.484,64.516
	C356.986,284,335.317,286,312,286v30c19.616,0,38.816-1.355,57.111-3.964C355.44,358.002,332.964,386,312,386v30
	c28.905,0,55.091-22.346,73.734-62.923c6.515-14.179,11.899-30.113,16.064-47.279c17.166-4.166,33.099-9.549,47.279-16.064
	C489.653,271.091,512,244.905,512,216S489.653,160.909,449.077,142.266z M408.036,273.111C410.645,254.816,412,235.616,412,216
	s-1.355-38.816-3.964-57.111C454.002,172.561,482,195.036,482,216S454.002,259.439,408.036,273.111z"/>
<path style="fill:#FFD9A5;" d="M308,250H0v150h230v-40h78c30.327,0,55-24.673,55-55S338.327,250,308,250z"/>
<path style="fill:#FFC36E;" d="M312,250.161v109.677c28.465-2.058,51-25.858,51-54.839S340.465,252.219,312,250.161z"/>
<path style="fill:#FFB74F;" d="M495.855,328.145c-21.49-21.491-56.461-21.491-77.951,0L360.049,386h-91.498l-57.43-57.43
	c-21.444-21.444-56.337-21.444-77.781,0c-10.388,10.388-16.109,24.2-16.109,38.891c0,14.691,5.721,28.502,16.109,38.891
	l73.539,73.539c0.906,0.906,1.847,1.686,2.814,2.372C219.388,490.803,232.095,496,246,496h137c0.027-0.008,0.058-0.018,0.085-0.027
	c0.012,0,0.023,0.001,0.035,0.001c14.115,0,28.23-5.373,38.976-16.119l73.76-73.76C517.347,384.604,517.347,349.636,495.855,328.145
	z"/>
<path style="fill:#FF9A00;" d="M495.855,328.145c-21.49-21.491-56.461-21.491-77.951,0L360.049,386H312v110h71
	c0.027-0.008,0.058-0.018,0.085-0.027c0.011,0,0.023,0.001,0.035,0.001c14.115,0,28.23-5.373,38.976-16.119l73.76-73.76
	C517.347,384.604,517.347,349.636,495.855,328.145z"/>
<g>
</g>
<g>
</g>
<g>
</g>
<g>
</g>
<g>
</g>
<g>
</g>
<g>
</g>
<g>
</g>
<g>
</g>
<g>
</g>
<g>
</g>
<g>
</g>
<g>
</g>
<g>
</g>
<g>
</g>
</svg>
