<?xml version="1.0" encoding="iso-8859-1"?>
<!-- Generator: Adobe Illustrator 19.0.0, SVG Export Plug-In . SVG Version: 6.00 Build 0)  -->
<svg version="1.1" id="Capa_1" xmlns="http://www.w3.org/2000/svg" xmlns:xlink="http://www.w3.org/1999/xlink" x="0px" y="0px"
	 viewBox="0 0 512 512" style="enable-background:new 0 0 512 512;" xml:space="preserve">
<path style="fill:#C49374;" d="M436.907,512h-255.79l-34.605-92.279V240h325v179.721L436.907,512z"/>
<polygon style="fill:#AB7C67;" points="308.512,240 308.512,512 436.907,512 471.512,419.721 471.512,240 "/>
<path style="fill:#C49374;" d="M155.381,304.413l-107.5-186.195c-7.346-12.723-9.297-27.544-5.495-41.735
	s12.903-26.051,25.626-33.396c26.264-15.162,59.967-6.133,75.131,20.131l107.5,186.195L155.381,304.413z"/>
<path style="fill:#93635B;" d="M416.512,343c-30.327,0-55-24.673-55-55v-80c0-30.327,24.673-55,55-55s55,24.673,55,55v80
	C471.512,318.327,446.839,343,416.512,343z"/>
<path style="fill:#AB7C67;" d="M311.512,270h-110V55c0-30.327,24.673-55,55-55s55,24.673,55,55V270z"/>
<path style="fill:#93635B;" d="M336.512,343c-30.327,0-55-24.673-55-55v-80c0-30.327,24.673-55,55-55s55,24.673,55,55v80
	C391.512,318.327,366.839,343,336.512,343z"/>
<g>
	<path style="fill:#7F554E;" d="M336.512,153c-10.22,0-19.792,2.811-28,7.687v174.625c8.208,4.876,17.78,7.687,28,7.687
		c30.327,0,55-24.673,55-55v-80C391.512,177.673,366.839,153,336.512,153z"/>
	<path style="fill:#7F554E;" d="M161.512,430c-30.327,0-55-24.673-55-55v-80c0-30.327,24.673-55,55-55s55,24.673,55,55v80
		C216.512,405.327,191.839,430,161.512,430z"/>
</g>
<path style="fill:#93635B;" d="M241.512,350h-80c-30.327,0-55-24.673-55-55s24.673-55,55-55h80c30.327,0,55,24.673,55,55
	S271.839,350,241.512,350z"/>
<g>
</g>
<g>
</g>
<g>
</g>
<g>
</g>
<g>
</g>
<g>
</g>
<g>
</g>
<g>
</g>
<g>
</g>
<g>
</g>
<g>
</g>
<g>
</g>
<g>
</g>
<g>
</g>
<g>
</g>
</svg>
