<?xml version="1.0" encoding="iso-8859-1"?>
<!-- Generator: Adobe Illustrator 19.0.0, SVG Export Plug-In . SVG Version: 6.00 Build 0)  -->
<svg version="1.1" id="Capa_1" xmlns="http://www.w3.org/2000/svg" xmlns:xlink="http://www.w3.org/1999/xlink" x="0px" y="0px"
	 viewBox="0 0 512 512" style="enable-background:new 0 0 512 512;" xml:space="preserve">
<path style="fill:#00CCCB;" d="M317,512h-15V302h210v15C512,424.523,424.523,512,317,512z"/>
<path style="fill:#8780EF;" d="M300,428.646c-52.314,0-101.283-20.158-137.886-56.761s-56.761-85.571-56.761-137.886
	s20.158-101.283,56.761-137.886l10.606-10.607l275.772,275.772l-10.607,10.606C401.283,408.489,352.314,428.646,300,428.646z"/>
<path style="fill:#746ED0;" d="M256,168.787v254.958c14.25,3.233,28.986,4.902,44,4.902c52.314,0,101.283-20.158,137.886-56.761
	l10.607-10.606L256,168.787z"/>
<path style="fill:#78EE49;" d="M326.716,328.635L192.365,194.284L383.284,3.365l10.606,10.607
	c33.053,33.053,51.256,77,51.256,123.744s-18.203,90.69-51.256,123.743L326.716,328.635z"/>
<path style="fill:#00E6B9;" d="M393.891,13.972L383.284,3.365L256,130.649v127.27l70.716,70.716l67.175-67.176
	c33.053-33.053,51.256-76.999,51.256-123.743S426.944,47.025,393.891,13.972z"/>
<path style="fill:#FFDF34;" d="M145,190c-52.383,0-95-42.617-95-95S92.617,0,145,0s95,42.617,95,95S197.383,190,145,190z"/>
<path style="fill:#FF9A00;" d="M74.561,150.921l2.146-4.829c14.431-32.47,14.431-69.715,0-102.185l-2.146-4.829L0,95L74.561,150.921
	z"/>
<g>
</g>
<g>
</g>
<g>
</g>
<g>
</g>
<g>
</g>
<g>
</g>
<g>
</g>
<g>
</g>
<g>
</g>
<g>
</g>
<g>
</g>
<g>
</g>
<g>
</g>
<g>
</g>
<g>
</g>
</svg>
