<?xml version="1.0" encoding="iso-8859-1"?>
<!-- Generator: Adobe Illustrator 19.0.0, SVG Export Plug-In . SVG Version: 6.00 Build 0)  -->
<svg version="1.1" id="Capa_1" xmlns="http://www.w3.org/2000/svg" xmlns:xlink="http://www.w3.org/1999/xlink" x="0px" y="0px"
	 viewBox="0 0 512 512" style="enable-background:new 0 0 512 512;" xml:space="preserve">
<path style="fill:#00E890;" d="M280.125,57.065l-2.046-10.616l-10.718-1.416c-1.415-0.187-30.885-3.869-61.276,8.097
	c-10.519-15.232-32.289-39.611-68.695-49.813l-7.222-2.023l-5.952,4.563C94.21,28.861,83.062,59.585,78.959,77.635
	c-32.661,0.189-58.652,14.562-59.895,15.26L9.64,98.193l2.046,10.616c11.94,61.941,77.851,86.662,80.651,87.685l5.188,1.893
	l65.917-24.479l70.292-1.777l4.113-3.686C240.065,166.456,292.065,119.007,280.125,57.065z"/>
<path style="fill:#00C47A;" d="M280.125,57.065l-2.046-10.616l-10.718-1.416c-1.415-0.187-30.885-3.869-61.276,8.097
	c-10.519-15.232-32.289-39.611-68.695-49.813l-7.222-2.023l36.278,172.54l67.287-1.701l4.113-3.686
	C240.065,166.456,292.065,119.007,280.125,57.065z"/>
<path style="fill:#00E890;" d="M471.554,54.222l-0.352-9.105l-8.243-3.884c-4.862-2.292-48.374-21.822-78.102-2.152
	s-28.763,67.354-28.555,72.727l0.352,9.105l8.243,3.884c2.286,1.077,13.109,5.962,27.027,8.796
	c15.693,3.195,35.321,3.78,51.075-6.644C472.726,107.278,471.761,59.594,471.554,54.222z"/>
<path style="fill:#00C47A;" d="M471.554,54.222l-0.352-9.105l-114.547,75.796l8.243,3.884c2.286,1.077,13.109,5.962,27.027,8.796
	c15.693,3.195,35.321,3.78,51.075-6.644C472.726,107.278,471.761,59.594,471.554,54.222z"/>
<path style="fill:#FF7700;" d="M370.323,96.166c-63.354-12.898-125.389,28.151-138.287,91.504
	c-12.898,63.354,28.151,125.389,91.505,138.287s125.389-28.151,138.287-91.505C474.726,171.1,433.677,109.064,370.323,96.166z"/>
<path style="fill:#7985EC;" d="M301.004,168.878L301.004,168.878c-5.364-27.825-24.67-50.894-54.362-64.956
	c-28.01-13.267-62.292-16.937-96.528-10.338c-34.237,6.6-64.698,22.75-85.769,45.477c-22.337,24.092-31.685,52.684-26.322,80.509
	c5.304,27.514,27.782,65.069,55.936,93.452c30.251,30.498,62.448,46.669,92.219,46.669c5.062,0,10.058-0.468,14.959-1.412
	c33.719-6.5,63.081-35.569,82.675-81.852C299.398,239.611,306.307,196.39,301.004,168.878z"/>
<path style="fill:#5663DB;" d="M301.004,168.878L301.004,168.878c-4.777-24.782-20.621-45.784-45.004-60.018v214.435
	c10.598-12.653,19.986-28.383,27.812-46.869C299.398,239.611,306.307,196.39,301.004,168.878z"/>
<path style="fill:#FFAE33;" d="M32,482.654h314.932v-262.5H32V482.654z"/>
<path style="fill:#FF9900;" d="M256,220.154v262.5h224v-262.5L256,220.154L256,220.154z"/>
<g>
	<rect y="421.036" style="fill:#FFD699;" width="512" height="89.67"/>
	<rect y="306.566" style="fill:#FFD699;" width="512" height="89.67"/>
	<rect y="192.106" style="fill:#FFD699;" width="512" height="89.67"/>
</g>
<g>
	<rect x="256" y="306.566" style="fill:#FFC266;" width="256" height="89.67"/>
	<rect x="256" y="421.036" style="fill:#FFC266;" width="256" height="89.67"/>
	<rect x="256" y="192.106" style="fill:#FFC266;" width="256" height="89.67"/>
</g>
<g>
</g>
<g>
</g>
<g>
</g>
<g>
</g>
<g>
</g>
<g>
</g>
<g>
</g>
<g>
</g>
<g>
</g>
<g>
</g>
<g>
</g>
<g>
</g>
<g>
</g>
<g>
</g>
<g>
</g>
</svg>
