<?xml version="1.0" encoding="iso-8859-1"?>
<!-- Generator: Adobe Illustrator 19.0.0, SVG Export Plug-In . SVG Version: 6.00 Build 0)  -->
<svg version="1.1" id="Capa_1" xmlns="http://www.w3.org/2000/svg" xmlns:xlink="http://www.w3.org/1999/xlink" x="0px" y="0px"
	 viewBox="0 0 512 512" style="enable-background:new 0 0 512 512;" xml:space="preserve">
<path style="fill:#AB7C67;" d="M326.978,429h-41c-24.813,0-45-20.187-45-45v-24c0-8.271-6.729-15-15-15h-44v-30h44
	c24.813,0,45,20.187,45,45v24c0,8.271,6.729,15,15,15h41V429z"/>
<path style="fill:#8780EF;" d="M166.546,397.757l-52.325-52.325l26.162-26.163c14.427-14.426,37.901-14.426,52.326,0
	c14.427,14.427,14.427,37.899,0,52.326L166.546,397.757z"/>
<path style="fill:#746ED0;" d="M192.709,371.595c14.427-14.427,14.427-37.899,0-52.326l-52.326,52.326l26.163,26.163
	L192.709,371.595z"/>
<path style="fill:#7F554E;" d="M472.478,290c-21.78,0-39.5-17.72-39.5-39.5V110h39.5c21.78,0,39.5,17.72,39.5,39.5v101
	C511.978,272.28,494.258,290,472.478,290z"/>
<path style="fill:#93635B;" d="M303.478,290c-21.78,0-39.5-17.72-39.5-39.5v-101c0-21.78,17.72-39.5,39.5-39.5h39.5v140.5
	C342.978,272.28,325.258,290,303.478,290z"/>
<path style="fill:#FF9800;" d="M462.978,320h-150V110h150V320z"/>
<path style="fill:#746ED0;" d="M94.978,511.955c-24.327,0-48.654-9.26-67.175-27.78c-37.041-37.04-37.041-97.31,0-134.35
	c37.041-37.041,97.309-37.041,134.35,0c37.041,37.04,37.041,97.31,0,134.35C143.632,502.695,119.305,511.955,94.978,511.955z"/>
<rect x="387.98" y="110" style="fill:#FF623A;" width="75" height="210"/>
<path style="fill:#93635B;" d="M387.978,140c-38.599,0-70-31.401-70-70s31.401-70,70-70s70,31.401,70,70S426.576,140,387.978,140z"
	/>
<path style="fill:#7F554E;" d="M387.978,0v140c38.599,0,70-31.401,70-70S426.576,0,387.978,0z"/>
<path style="fill:#FF623A;" d="M312.978,290v177c0,24.813,20.187,45,45,45c11.517,0,22.032-4.353,30-11.495
	c7.968,7.141,18.483,11.495,30,11.495c24.813,0,45-20.187,45-45V290H312.978z"/>
<path style="fill:#FF4C36;" d="M387.978,290v210.505c7.968,7.141,18.483,11.495,30,11.495c24.813,0,45-20.187,45-45V290H387.978z"/>
<path style="fill:#746ED0;" d="M387.978,454h-75v-80h75V454z"/>
<path style="fill:#415BE8;" d="M189.933,416.956c0-26.192-10.654-49.942-27.856-67.144L27.79,484.099
	c17.202,17.202,40.951,27.856,67.143,27.856C147.317,511.956,189.934,469.339,189.933,416.956z"/>
<g>
</g>
<g>
</g>
<g>
</g>
<g>
</g>
<g>
</g>
<g>
</g>
<g>
</g>
<g>
</g>
<g>
</g>
<g>
</g>
<g>
</g>
<g>
</g>
<g>
</g>
<g>
</g>
<g>
</g>
</svg>
