<?xml version="1.0" encoding="iso-8859-1"?>
<!-- Generator: Adobe Illustrator 21.0.0, SVG Export Plug-In . SVG Version: 6.00 Build 0)  -->
<svg xmlns="http://www.w3.org/2000/svg" xmlns:xlink="http://www.w3.org/1999/xlink" version="1.1" id="Capa_1" x="0px" y="0px" viewBox="0 0 512 512" style="enable-background:new 0 0 512 512;" xml:space="preserve" width="512" height="512">
<g>
	<path style="fill:#C5C9F7;" d="M436.34,315.3c-2.96,9.02-6.6,17.82-10.89,26.29l45.34,61.66l-67.54,67.54l-61.66-45.34   c-8.47,4.29-17.27,7.93-26.29,10.89L303.76,512h-95.52l-11.54-75.66c-9.02-2.96-17.82-6.6-26.29-10.89l-61.66,45.34l-67.54-67.54   l45.34-61.66c-4.29-8.47-7.93-17.27-10.89-26.29L0,303.76v-95.52l75.66-11.54c2.96-9.03,6.6-17.82,10.89-26.29l-45.34-61.66   l67.54-67.54l61.66,45.34c8.47-4.29,17.27-7.93,26.29-10.89L208.24,0h95.52l11.54,75.66c9.03,2.96,17.82,6.6,26.29,10.89   l61.66-45.34l67.54,67.54l-45.34,61.66c4.29,8.47,7.93,17.26,10.89,26.29L512,208.24v95.52L436.34,315.3z"/>
	<path style="fill:#A7AFF2;" d="M436.34,315.3c-2.96,9.02-6.6,17.82-10.89,26.29l45.34,61.66l-67.54,67.54l-61.66-45.34   c-8.47,4.29-17.27,7.93-26.29,10.89L303.76,512H256V0h47.76l11.54,75.66c9.03,2.96,17.82,6.6,26.29,10.89l61.66-45.34l67.54,67.54   l-45.34,61.66c4.29,8.47,7.93,17.26,10.89,26.29L512,208.24v95.52L436.34,315.3z"/>
	<path style="fill:#7985EB;" d="M382,256c0,69.48-56.52,126-126,126s-126-56.52-126-126s56.52-126,126-126S382,186.52,382,256z"/>
	<path style="fill:#4B5BE6;" d="M382,256c0,69.48-56.52,126-126,126V130C325.48,130,382,186.52,382,256z"/>
	<path style="fill:#97A1F0;" d="M318,256c0,34.19-27.81,62-62,62s-62-27.81-62-62s27.81-62,62-62S318,221.81,318,256z"/>
	<path style="fill:#7985EB;" d="M318,256c0,34.19-27.81,62-62,62V194C290.19,194,318,221.81,318,256z"/>
</g>















</svg>
