<?xml version="1.0" encoding="iso-8859-1"?>
<!-- Generator: Adobe Illustrator 19.0.0, SVG Export Plug-In . SVG Version: 6.00 Build 0)  -->
<svg version="1.1" id="Capa_1" xmlns="http://www.w3.org/2000/svg" xmlns:xlink="http://www.w3.org/1999/xlink" x="0px" y="0px"
	 viewBox="0 0 512 512" style="enable-background:new 0 0 512 512;" xml:space="preserve">
<rect x="241.012" y="-98.272" transform="matrix(-0.2798 -0.9601 0.9601 -0.2798 270.9856 321.3134)" style="fill:#FFDF34;" width="30.001" height="314.573"/>
<polygon style="fill:#FF9B41;" points="256,74.624 411.196,29.401 402.804,0.599 256,43.376 "/>
<path style="fill:#7F554E;" d="M510.544,334H303.456l56.41-264h94.268L510.544,334z M340.544,304h132.912l-43.59-204h-45.732
	L340.544,304z"/>
<path style="fill:#AB7C67;" d="M208.544,422H1.456l56.41-264h94.268L208.544,422z M38.544,392h132.912l-43.59-204H82.134L38.544,392
	z"/>
<path style="fill:#A7AFF2;" d="M185,422H25v-35c0-24.813,20.187-45,45-45h70c24.813,0,45,20.187,45,45V422z"/>
<path style="fill:#FFD9A5;" d="M105,372c-27.57,0-50-22.43-50-50s22.43-50,50-50s50,22.43,50,50S132.57,372,105,372z"/>
<path style="fill:#FFF65C;" d="M155,188H55v-50c0-27.57,22.43-50,50-50s50,22.43,50,50V188z"/>
<path style="fill:#7985EB;" d="M487,334H327v-35c0-24.813,20.187-45,45-45h70c24.813,0,45,20.187,45,45V334z"/>
<path style="fill:#FFC36E;" d="M407,284c-27.57,0-50-22.43-50-50s22.43-50,50-50s50,22.43,50,50S434.57,284,407,284z"/>
<path style="fill:#FFDF34;" d="M457,100H357V50c0-27.57,22.43-50,50-50s50,22.43,50,50V100z"/>
<path style="fill:#FF9800;" d="M256,130c-35.841,0-65-29.159-65-65s29.159-65,65-65s65,29.159,65,65S291.841,130,256,130z"/>
<path style="fill:#7F554E;" d="M105,512C47.103,512,0,464.897,0,407v-15h210v15C210,464.897,162.897,512,105,512z"/>
<path style="fill:#513B32;" d="M407,424c-57.897,0-105-47.103-105-105v-15h210v15C512,376.897,464.897,424,407,424z"/>
<path style="fill:#FF623A;" d="M256,0v130c35.841,0,65-29.159,65-65S291.841,0,256,0z"/>
<g>
</g>
<g>
</g>
<g>
</g>
<g>
</g>
<g>
</g>
<g>
</g>
<g>
</g>
<g>
</g>
<g>
</g>
<g>
</g>
<g>
</g>
<g>
</g>
<g>
</g>
<g>
</g>
<g>
</g>
</svg>
