<?xml version="1.0" encoding="iso-8859-1"?>
<!-- Generator: Adobe Illustrator 19.0.0, SVG Export Plug-In . SVG Version: 6.00 Build 0)  -->
<svg version="1.1" id="Capa_1" xmlns="http://www.w3.org/2000/svg" xmlns:xlink="http://www.w3.org/1999/xlink" x="0px" y="0px"
	 viewBox="0 0 512 512" style="enable-background:new 0 0 512 512;" xml:space="preserve">
<path style="fill:#00DC3B;" d="M415.959,254.109c-0.398-5.53-11.272-4.27-11.952-9.622s8.83-17.317,7.887-22.49
	c-5.714-31.319-16.065-59.367-28.817-84.116c-2.234-4.336-13.881-2.265-16.251-6.399c-2.613-4.558,4.036-15.299,1.289-19.61
	c-33.258-52.19-75.153-86.285-97.113-101.936C261.721,3.321,256,10.008,256,10.008l-20.017,179.644L256,434.344h2.493
	c87.399,0,158.25-70.851,158.25-158.25l0,0C416.744,268.615,416.475,261.288,415.959,254.109z"/>
<path style="fill:#5CFF88;" d="M240.999,9.936c-21.959,15.652-63.857,49.745-97.114,101.938c-2.573,4.038,3.746,12.355,1.29,16.609
	c-2.544,4.406-13.86,4.76-16.251,9.398c-12.753,24.748-23.103,52.795-28.817,84.114c-0.996,5.46,8.089,12.834,7.386,18.493
	c-0.629,5.066-11.076,8.398-11.452,13.624c-0.516,7.177-0.785,14.505-0.785,21.982l0,0c0,87.399,70.851,158.25,158.25,158.25h2.493
	V10.008C256,10.008,250.28,3.32,240.999,9.936z"/>
<path style="fill:#00B86F;" d="M411.888,221.996L271,300.999v-100.27l112.072-62.846c-4.698-9.117-9.721-17.787-14.96-26.007
	L271,166.331V9.936C261.721,3.322,256,0,256,0l-10.008,206.313L255.999,512H271V335.395l144.953-81.284
	C415.158,243.05,413.776,232.344,411.888,221.996z"/>
<path style="fill:#00DC3B;" d="M240.999,9.936v156.395l-97.112-54.456c-5.238,8.22-10.261,16.89-14.96,26.007l112.072,62.845
	v100.271l-140.887-79.004c-1.888,10.348-3.27,21.054-4.066,32.115l144.952,81.284v176.605h15.001V0
	C256,0,250.279,3.322,240.999,9.936z"/>
<g>
</g>
<g>
</g>
<g>
</g>
<g>
</g>
<g>
</g>
<g>
</g>
<g>
</g>
<g>
</g>
<g>
</g>
<g>
</g>
<g>
</g>
<g>
</g>
<g>
</g>
<g>
</g>
<g>
</g>
</svg>
