<?xml version="1.0" encoding="iso-8859-1"?>
<!-- Generator: Adobe Illustrator 19.0.0, SVG Export Plug-In . SVG Version: 6.00 Build 0)  -->
<svg version="1.1" id="Capa_1" xmlns="http://www.w3.org/2000/svg" xmlns:xlink="http://www.w3.org/1999/xlink" x="0px" y="0px"
	 viewBox="0 0 512.002 512.002" style="enable-background:new 0 0 512.002 512.002;" xml:space="preserve">
<path style="fill:#FF9B41;" d="M300.677,305.18l-57.493-57.53l72.313-72.36c7.682-7.686,17.895-11.919,28.756-11.922
	c0.004,0,0.007,0,0.011,0c10.86,0,21.07,4.23,28.748,11.913c15.848,15.858,15.844,41.664-0.008,57.525L300.677,305.18z"/>
<path style="fill:#FF8A2D;" d="M336.995,341.499l-57.486-57.525l91.944-92.004c7.733-7.738,17.981-12.058,28.854-12.161
	c0.134-0.001,0.268-0.002,0.4-0.002c10.83,0,20.972,4.187,28.595,11.815c15.846,15.856,15.689,41.812-0.35,57.858L336.995,341.499z"
	/>
<path style="fill:#FF9B41;" d="M373.312,377.817l-57.481-57.52l108.616-108.689c7.68-7.685,17.892-11.92,28.752-11.925
	c0.005,0,0.013,0,0.018,0c10.858,0,21.064,4.229,28.74,11.909c15.845,15.855,15.838,41.659-0.016,57.521L373.312,377.817z"/>
<path style="fill:#FF8A2D;" d="M409.631,414.135l-57.486-57.525l90.464-90.525c7.682-7.686,17.894-11.92,28.754-11.924
	c0.005,0,0.011,0,0.015,0c10.859,0,21.067,4.229,28.744,11.911c15.846,15.857,15.84,41.662-0.011,57.523L409.631,414.135z"/>
<path style="fill:#FF9B41;" d="M459.715,494.337H299.148v-81.184h160.567c22.354,0,40.539,18.186,40.539,40.539v0.106
	C500.254,476.152,482.068,494.337,459.715,494.337z"/>
<g>
	<path style="fill:#FFC36E;" d="M278.747,511.999c-21.123,0.001-40.945-8.2-55.846-23.111l-54.448-54.484
		c-30.862-30.883-30.721-81.274,0.314-112.329l95.591-95.652L430.76,392.935l-95.576,95.641
		c-15.024,15.033-34.967,23.353-56.155,23.426C278.935,511.999,278.841,511.999,278.747,511.999z"/>
	<path style="fill:#FFC36E;" d="M264.35,268.817l-57.53-57.493l72.373-72.326c15.865-15.851,41.671-15.855,57.525-0.009
		c7.686,7.681,11.917,17.896,11.914,28.76c-0.003,10.861-4.236,21.074-11.922,28.755L264.35,268.817z"/>
</g>
<path style="fill:#EFAA56;" d="M228.026,232.491l-57.525-57.486l92.019-91.958c16.048-16.038,42.005-16.193,57.858-0.349
	c7.723,7.717,11.918,18.015,11.813,28.995c-0.104,10.872-4.423,21.12-12.162,28.854L228.026,232.491z"/>
<path style="fill:#FFC36E;" d="M191.703,196.168l-57.52-57.481l108.703-108.63c15.861-15.853,41.665-15.861,57.52-0.016
	c7.686,7.681,11.914,17.895,11.91,28.759c-0.005,10.86-4.24,21.072-11.926,28.752L191.703,196.168z"/>
<path style="fill:#EFAA56;" d="M155.391,159.857L97.865,102.37l90.539-90.48c15.863-15.85,41.668-15.855,57.523-0.012
	c7.686,7.681,11.916,17.895,11.912,28.76c-0.004,10.86-4.238,21.072-11.924,28.753L155.391,159.857z"/>
<path style="fill:#E09D55;" d="M98.846,212.852H17.663V52.284c0-22.354,18.186-40.539,40.539-40.539h0.106
	c22.354,0,40.539,18.186,40.539,40.539C98.846,52.284,98.846,212.852,98.846,212.852z"/>
<path style="fill:#FFD9A5;" d="M133.472,366.602c-20.265,0-40.49-7.68-55.875-23.055l-54.484-54.448
	C8.136,274.131-0.073,254.198,0,232.971c0.073-21.189,8.393-41.132,23.426-56.155l95.641-95.576l166.512,166.402l-95.652,95.591
	C174.341,358.807,153.887,366.602,133.472,366.602z"/>
<path style="fill:#FF3C22;" d="M143.984,368.016l0.504-147.937c0.153-44.839,36.755-81.441,81.592-81.592l0,0
	c0.094,0,0.19,0,0.285,0c21.661,0,41.989,8.404,57.271,23.687c12.023,12.023,19.791,27.171,22.556,43.635
	c16.463,2.765,31.609,10.531,43.634,22.555c15.35,15.35,23.762,35.789,23.689,57.557c-0.153,44.838-36.755,81.439-81.593,81.592
	L143.984,368.016z"/>
<path style="fill:#CE2200;" d="M373.514,285.92c0.073-21.768-8.339-42.208-23.688-57.557c-12.024-12.023-27.171-19.79-43.634-22.555
	l0,0L143.984,368.016l0,0l147.937-0.504C336.759,367.359,373.36,330.757,373.514,285.92z"/>
<g>
</g>
<g>
</g>
<g>
</g>
<g>
</g>
<g>
</g>
<g>
</g>
<g>
</g>
<g>
</g>
<g>
</g>
<g>
</g>
<g>
</g>
<g>
</g>
<g>
</g>
<g>
</g>
<g>
</g>
</svg>
