<?xml version="1.0" encoding="iso-8859-1"?>
<!-- Generator: Adobe Illustrator 19.0.0, SVG Export Plug-In . SVG Version: 6.00 Build 0)  -->
<svg version="1.1" id="Capa_1" xmlns="http://www.w3.org/2000/svg" xmlns:xlink="http://www.w3.org/1999/xlink" x="0px" y="0px"
	 viewBox="0 0 512 512" style="enable-background:new 0 0 512 512;" xml:space="preserve">
<g>
	<path style="fill:#00E6B9;" d="M353,283.08c-30.327,0-55-24.673-55-55s24.673-55,55-55h55v55
		C408,258.407,383.327,283.08,353,283.08z"/>
	<path style="fill:#00E6B9;" d="M269,196.08c-30.327,0-55-24.673-55-55s24.673-55,55-55h55v55
		C324,171.407,299.327,196.08,269,196.08z"/>
</g>
<path style="fill:#FFDF34;" d="M436,194.08h-55v-55c0-30.327,24.673-55,55-55s55,24.673,55,55S466.327,194.08,436,194.08z"/>
<path style="fill:#C9FF52;" d="M329,132.862l-38.891-38.891C279.721,83.583,274,69.771,274,55.08s5.721-28.502,16.109-38.891
	c21.443-21.444,56.338-21.444,77.781,0C378.279,26.578,384,40.389,384,55.08s-5.721,28.502-16.109,38.891L329,132.862z"/>
<path style="fill:#00CCCB;" d="M432,473.08h-30v-181c0-111.935-91.065-203-203-203v-30c62.236,0,120.748,24.236,164.756,68.244
	S432,229.844,432,292.08V473.08z"/>
<path style="fill:#00E6B9;" d="M363.756,127.324C319.748,83.317,261.236,59.08,199,59.08v15c58.23,0,112.975,22.676,154.149,63.851
	C394.324,179.106,417,233.851,417,292.08v181h15v-181C432,229.844,407.764,171.332,363.756,127.324z"/>
<path style="fill:#FF623A;" d="M255,415.657V284.503l204.019,65.577L255,415.657z"/>
<path style="fill:#FFB74F;" d="M142,511.92l-46.852-30.002l-46.797,29.967L0,481.348V314.08c0-78.299,63.701-142,142-142
	s142,63.701,142,142v167.268l-48.351,30.536l-46.797-29.967L142,511.92z"/>
<path style="fill:#FF9A00;" d="M142,172.08v339.84l46.852-30.002l46.797,29.967L284,481.348V314.08
	C284,235.781,220.299,172.08,142,172.08z"/>
<path style="fill:#A7AFF2;" d="M175.5,350.08c-28.949,0-52.5-23.551-52.5-52.5s23.551-52.5,52.5-52.5s52.5,23.551,52.5,52.5
	S204.449,350.08,175.5,350.08z"/>
<g>
	<path style="fill:#C9FF52;" d="M130,150.08c-20.033,0-38.868-7.801-53.033-21.967C62.801,113.948,55,95.114,55,75.08
		s7.801-38.868,21.967-53.033C91.132,7.882,109.967,0.08,130,0.08s38.868,7.801,53.033,21.967l53.033,53.033l-53.033,53.033l0,0l0,0
		C168.868,142.279,150.033,150.08,130,150.08z"/>
	<path style="fill:#C9FF52;" d="M457,321.08h-55v-55c0-30.327,24.673-55,55-55s55,24.673,55,55S487.327,321.08,457,321.08z"/>
</g>
<path style="fill:#7985EB;" d="M175.5,245.08c-12.724,0-24.403,4.553-33.5,12.111v80.778c9.097,7.558,20.776,12.111,33.5,12.111
	c28.949,0,52.5-23.551,52.5-52.5S204.449,245.08,175.5,245.08z"/>
<g>
	<path style="fill:#78EE49;" d="M55,75.08c0,20.033,7.801,38.868,21.967,53.033c14.166,14.166,33,21.967,53.033,21.967
		s38.868-7.801,53.033-21.967l53.033-53.033H55z"/>
	<path style="fill:#78EE49;" d="M457,211.08c-15.75,0-29.964,6.665-40,17.31v92.69h40c30.327,0,55-24.673,55-55
		S487.327,211.08,457,211.08z"/>
</g>
<g>
</g>
<g>
</g>
<g>
</g>
<g>
</g>
<g>
</g>
<g>
</g>
<g>
</g>
<g>
</g>
<g>
</g>
<g>
</g>
<g>
</g>
<g>
</g>
<g>
</g>
<g>
</g>
<g>
</g>
</svg>
