<?xml version="1.0" encoding="iso-8859-1"?>
<!-- Generator: Adobe Illustrator 19.0.0, SVG Export Plug-In . SVG Version: 6.00 Build 0)  -->
<svg version="1.1" id="Capa_1" xmlns="http://www.w3.org/2000/svg" xmlns:xlink="http://www.w3.org/1999/xlink" x="0px" y="0px"
	 viewBox="0 0 512 512" style="enable-background:new 0 0 512 512;" xml:space="preserve">
<path style="fill:#FFD9A5;" d="M60.5,290C38.72,290,21,272.28,21,250.5v-101c0-21.78,17.72-39.5,39.5-39.5H100v140.5
	C100,272.28,82.28,290,60.5,290z"/>
<path style="fill:#FF4C36;" d="M220,310H70V110h150V310z"/>
<path style="fill:#FF9800;" d="M70,280v187c0,24.813,20.187,45,45,45c11.517,0,22.032-4.354,30-11.495
	c7.968,7.142,18.483,11.495,30,11.495c24.813,0,45-20.187,45-45V280H70z"/>
<path style="fill:#FFC36E;" d="M248.791,167.19c-10.115,0-20.23-3.85-27.931-11.551c-15.401-15.401-15.401-40.46,0-55.861
	l71.418-71.418c15.4-15.4,40.461-15.401,55.861,0l0,0c15.4,15.401,15.4,40.46,0,55.861l-71.418,71.418
	C269.021,163.34,258.906,167.19,248.791,167.19z"/>
<rect x="145" y="110" style="fill:#FF3C22;" width="75" height="200"/>
<path style="fill:#FF623A;" d="M145,280v220.505c7.968,7.142,18.483,11.495,30,11.495c24.813,0,45-20.187,45-45V280H145z"/>
<path style="fill:#FFD9A5;" d="M145,140c-38.598,0-70-31.402-70-70s31.402-70,70-70s70,31.402,70,70S183.598,140,145,140z"/>
<path style="fill:#FFC36E;" d="M145,0v140c38.598,0,70-31.402,70-70S183.598,0,145,0z"/>
<path style="fill:#8780EF;" d="M446,170H342.688l-197.63-99.925L178.816,170H175c-24.813,0-45,20.187-45,45v170
	c0,24.813,20.187,45,45,45h271c24.813,0,45-20.187,45-45V215C491,190.187,470.813,170,446,170z"/>
<path style="fill:#746ED0;" d="M446,170H342.688L310.5,153.725V430H446c24.813,0,45-20.187,45-45V215
	C491,190.187,470.813,170,446,170z"/>
<g>
	<rect x="183" y="285" style="fill:#78EE49;" width="255" height="30"/>
	<rect x="183" y="225" style="fill:#78EE49;" width="255" height="30"/>
	<rect x="183" y="345" style="fill:#78EE49;" width="185" height="30"/>
</g>
<g>
	<rect x="310.5" y="225" style="fill:#00CCCB;" width="127.5" height="30"/>
	<rect x="310.5" y="285" style="fill:#00CCCB;" width="127.5" height="30"/>
	<rect x="310.5" y="345" style="fill:#00CCCB;" width="57.5" height="30"/>
</g>
<g>
</g>
<g>
</g>
<g>
</g>
<g>
</g>
<g>
</g>
<g>
</g>
<g>
</g>
<g>
</g>
<g>
</g>
<g>
</g>
<g>
</g>
<g>
</g>
<g>
</g>
<g>
</g>
<g>
</g>
</svg>
