<?xml version="1.0" encoding="iso-8859-1"?>
<!-- Generator: Adobe Illustrator 19.0.0, SVG Export Plug-In . SVG Version: 6.00 Build 0)  -->
<svg version="1.1" id="Capa_1" xmlns="http://www.w3.org/2000/svg" xmlns:xlink="http://www.w3.org/1999/xlink" x="0px" y="0px"
	 viewBox="0 0 512 512" style="enable-background:new 0 0 512 512;" xml:space="preserve">
<path style="fill:#FFDB2D;" d="M208.5,298.5c-21.78,0-39.5-17.72-39.5-39.5V151.5h39.5c21.78,0,39.5,17.72,39.5,39.5v68
	C248,280.78,230.28,298.5,208.5,298.5z"/>
<path style="fill:#FF9B41;" d="M39.5,298.5C17.72,298.5,0,280.78,0,259v-68c0-21.78,17.72-39.5,39.5-39.5H79V259
	C79,280.78,61.28,298.5,39.5,298.5z"/>
<path style="fill:#8780EF;" d="M199,328.5H49v-177h150V328.5z"/>
<rect x="124" y="151.5" style="fill:#746ED0;" width="75" height="177"/>
<path style="fill:#FF9B41;" d="M124,181.5c-38.599,0-70-31.402-70-70s31.401-70,70-70s70,31.402,70,70S162.599,181.5,124,181.5z"/>
<path style="fill:#FF8A2D;" d="M124,41.5v140c38.599,0,70-31.402,70-70S162.599,41.5,124,41.5z"/>
<path style="fill:#746ED0;" d="M49,298.5v127c0,24.813,20.187,45,45,45c11.517,0,22.032-4.354,30-11.495
	c7.968,7.141,18.483,11.495,30,11.495c24.813,0,45-20.187,45-45v-127H49z"/>
<path style="fill:#415BE8;" d="M124,298.5v160.505c7.968,7.141,18.483,11.495,30,11.495c24.813,0,45-20.187,45-45v-127H124z"/>
<path style="fill:#FFDBA9;" d="M340.5,298.5c-21.78,0-39.5-17.72-39.5-39.5V151.5h39.5c21.78,0,39.5,17.72,39.5,39.5v68
	C380,280.78,362.28,298.5,340.5,298.5z"/>
<path style="fill:#FFD9A5;" d="M171.5,298.5c-21.78,0-39.5-17.72-39.5-39.5v-68c0-21.78,17.72-39.5,39.5-39.5H211V259
	C211,280.78,193.28,298.5,171.5,298.5z"/>
<path style="fill:#78EE49;" d="M331,328.5H181v-177h150V328.5z"/>
<rect x="256" y="151.5" style="fill:#00E6B9;" width="75" height="177"/>
<path style="fill:#FFD9A5;" d="M256,181.5c-38.599,0-70-31.402-70-70s31.401-70,70-70s70,31.402,70,70S294.599,181.5,256,181.5z"/>
<path style="fill:#FFC36E;" d="M256,41.5v140c38.599,0,70-31.402,70-70S294.599,41.5,256,41.5z"/>
<path style="fill:#00E6B9;" d="M181,298.5v127c0,24.813,20.187,45,45,45c11.517,0,22.032-4.354,30-11.495
	c7.968,7.141,18.483,11.495,30,11.495c24.813,0,45-20.187,45-45v-127H181z"/>
<path style="fill:#00CCCB;" d="M256,298.5v160.505c7.968,7.141,18.483,11.495,30,11.495c24.813,0,45-20.187,45-45v-127H256z"/>
<path style="fill:#AB7C67;" d="M472.5,298.5c-21.78,0-39.5-17.72-39.5-39.5V151.5h39.5c21.78,0,39.5,17.72,39.5,39.5v68
	C512,280.78,494.28,298.5,472.5,298.5z"/>
<path style="fill:#C49374;" d="M303.5,298.5c-21.78,0-39.5-17.72-39.5-39.5v-68c0-21.78,17.72-39.5,39.5-39.5H343V259
	C343,280.78,325.28,298.5,303.5,298.5z"/>
<path style="fill:#FF9800;" d="M463,328.5H313v-177h150V328.5z"/>
<rect x="388" y="151.5" style="fill:#FF623A;" width="75" height="177"/>
<path style="fill:#C49374;" d="M388,181.5c-38.599,0-70-31.402-70-70s31.401-70,70-70s70,31.402,70,70S426.599,181.5,388,181.5z"/>
<path style="fill:#AB7C67;" d="M388,41.5v140c38.599,0,70-31.402,70-70S426.599,41.5,388,41.5z"/>
<path style="fill:#FF623A;" d="M313,298.5v127c0,24.813,20.187,45,45,45c11.517,0,22.032-4.354,30-11.495
	c7.968,7.141,18.483,11.495,30,11.495c24.813,0,45-20.187,45-45v-127H313z"/>
<path style="fill:#FF4C36;" d="M388,298.5v160.505c7.968,7.141,18.483,11.495,30,11.495c24.813,0,45-20.187,45-45v-127H388z"/>
<g>
</g>
<g>
</g>
<g>
</g>
<g>
</g>
<g>
</g>
<g>
</g>
<g>
</g>
<g>
</g>
<g>
</g>
<g>
</g>
<g>
</g>
<g>
</g>
<g>
</g>
<g>
</g>
<g>
</g>
</svg>
